<?xml version="1.0" encoding="utf-8"?>
<!-- Generator: Adobe Illustrator 14.0.0, SVG Export Plug-In . SVG Version: 6.00 Build 43363)  -->
<!DOCTYPE svg PUBLIC "-//W3C//DTD SVG 1.1//EN" "http://www.w3.org/Graphics/SVG/1.1/DTD/svg11.dtd">
<svg version="1.1" id="Layer_1" xmlns:sketch="http://www.bohemiancoding.com/sketch/ns"
	 xmlns="http://www.w3.org/2000/svg" xmlns:xlink="http://www.w3.org/1999/xlink" x="0px" y="0px" width="17px" height="12px"
	 viewBox="0 0 17 12" enable-background="new 0 0 17 12" xml:space="preserve">
<title>Closed Eye</title>
<description>Created with Sketch (http://www.bohemiancoding.com/sketch)</description>
<g id="Page_1">
	<g id="Artboard_2">
		<g id="closed_eye">
			<path id="Oval_1_copy" d="M8.689,8.403c3.118,0,5.647-2.632,5.647-2.632S11.808,3.14,8.689,3.14
				c-3.118,0-5.646,2.631-5.646,2.631S5.572,8.403,8.689,8.403z"/>
			<path id="Rectangle_1_copy_2" d="M4.161,7.48L3.358,8.559l0.573,0.379l0.802-1.078L4.161,7.48z"/>
			<path id="Rectangle_1" d="M12.452,7.859l0.803,1.078l0.572-0.379L13.025,7.48L12.452,7.859z"/>
			<path id="Rectangle_1_copy_2_1_" d="M8.29,8.929v1.316h0.699V8.929H8.29z"/>
			<path id="Rectangle_1_copy_3" d="M10.528,8.684l0.456,1.243l0.661-0.214l-0.456-1.245L10.528,8.684z"/>
			<path id="Rectangle_1_copy_3_1_" d="M6.189,8.472L5.734,9.718l0.662,0.213l0.455-1.245L6.189,8.472z"/>
		</g>
	</g>
</g>
</svg>
