<svg xmlns="http://www.w3.org/2000/svg" xmlns:xlink="http://www.w3.org/1999/xlink" xmlns:sketch="http://www.bohemiancoding.com/sketch/ns" width="17px" height="12px" viewBox="0 0 17 12" version="1.1">
    <title>Closed Eye</title>
    <description>Created with Sketch (http://www.bohemiancoding.com/sketch)</description>
    <defs/>
    <g id="Page 1" fill="#000000" fill-rule="evenodd">
        <g id="Artboard 2">
            <g id="closed eye" fill="#000000">
                <path d="M8.07190973,8.5 C12.5299026,8.5 16.1438195,4.5 16.1438195,4.5 C16.1438195,4.5 12.5299026,0.5 8.07190973,0.5 C3.61391687,0.5 0,4.5 0,4.5 C0,4.5 3.61391687,8.5 8.07190973,8.5 Z M8.07190973,8.5" id="Oval 1 copy"/>
                <path d="M0.933012702,7.20594026 L0.933012702,9.20594026 L1.9330127,9.20594026 L1.9330127,7.20594026 L0.933012702,7.20594026 Z M0.933012702,7.20594026" id="Rectangle 1 copy 2" transform="translate(1.433013, 8.205940) rotate(-325.000000) translate(-1.433013, -8.205940)"/>
                <path d="M13.9330127,7.20594026 L13.9330127,9.20594026 L14.9330127,9.20594026 L14.9330127,7.20594026 L13.9330127,7.20594026 Z M13.9330127,7.20594026" id="Rectangle 1" transform="translate(14.433013, 8.205940) rotate(-35.000000) translate(-14.433013, -8.205940)"/>
                <path d="M7.5,9.3 L7.5,11.3 L8.5,11.3 L8.5,9.3 L7.5,9.3 Z M7.5,9.3" id="Rectangle 1 copy 2"/>
                <path d="M10.9983274,8.70830265 L10.9983274,10.7083027 L11.9983274,10.7083027 L11.9983274,8.70830265 L10.9983274,8.70830265 Z M10.9983274,8.70830265" id="Rectangle 1 copy 3" transform="translate(11.498327, 9.708303) rotate(-19.000000) translate(-11.498327, -9.708303)"/>
                <path d="M4.14362173,8.71468634 L4.14362173,10.7146863 L5.14362173,10.7146863 L5.14362173,8.71468634 L4.14362173,8.71468634 Z M4.14362173,8.71468634" id="Rectangle 1 copy 3" transform="translate(4.643622, 9.714686) rotate(-341.000000) translate(-4.643622, -9.714686)"/>
            </g>
        </g>
    </g>
</svg>