<svg xmlns="http://www.w3.org/2000/svg" xmlns:xlink="http://www.w3.org/1999/xlink" version="1.1" id="Layer_1" x="0px" y="0px" width="100px" height="100px" viewBox="0 0 100 100" enable-background="new 0 0 100 100" xml:space="preserve">
<g>
	<path d="M51.393,35.558c-8.529,0-15.442,6.914-15.442,15.442c0,8.528,6.914,15.442,15.442,15.442   c8.528,0,15.442-6.914,15.442-15.442C66.835,42.471,59.921,35.558,51.393,35.558z M57.358,51c0,3.294-2.67,5.966-5.965,5.966   c-3.297,0-5.969-2.672-5.969-5.966c0-3.295,2.671-5.966,5.969-5.966c0.736,0,1.438,0.14,2.089,0.384   c-0.289-0.387-0.467-0.863-0.467-1.384c0-1.282,1.04-2.322,2.323-2.322c1.281,0,2.32,1.04,2.32,2.322   c0,1.283-1.039,2.322-2.32,2.322c-0.081,0-0.158-0.016-0.237-0.024C56.476,47.425,57.358,49.108,57.358,51z"/>
</g>
<path d="M98.436,48.978c-0.54-0.58-8.624-9.122-20.869-15.681c0.812-1.153,1.374-2.503,1.53-3.856c0.188-1.54-0.056-3.01-0.49-4.333  c-0.439-1.327-1.066-2.533-1.785-3.65c-0.723-1.115-1.532-2.156-2.437-3.094c0.66,1.119,1.195,2.298,1.621,3.496  c0.422,1.197,0.721,2.425,0.823,3.626c0.101,1.198-0.014,2.368-0.393,3.357c-0.278,0.731-1.286,1.967-2.118,2.813  c-2.135-1.014-4.377-1.946-6.708-2.76c0.873-1.249,1.478-2.709,1.646-4.172c0.204-1.676-0.061-3.277-0.534-4.717  c-0.479-1.445-1.16-2.758-1.943-3.976c-0.787-1.214-1.669-2.347-2.652-3.368c0.719,1.218,1.301,2.502,1.765,3.806  c0.46,1.304,0.785,2.641,0.896,3.948c0.11,1.305-0.015,2.579-0.427,3.656c-0.276,0.726-1.666,2.363-2.812,3.561  c-2.012-0.547-4.074-1-6.189-1.32c0.639-1.14,1.081-2.39,1.226-3.641c0.221-1.813-0.065-3.545-0.577-5.103  c-0.518-1.563-1.256-2.983-2.103-4.3c-0.852-1.313-1.805-2.539-2.869-3.644c0.777,1.317,1.407,2.707,1.909,4.117  c0.497,1.41,0.849,2.856,0.969,4.271c0.119,1.412-0.016,2.79-0.462,3.954c-0.346,0.908-1.868,2.735-2.975,3.847  C51.657,25.772,50.831,25.75,50,25.75c-1.45,0-2.882,0.074-4.298,0.2c0.168-0.47,0.305-0.959,0.369-1.517  c0.198-1.625-0.059-3.177-0.517-4.573c-0.464-1.401-1.125-2.673-1.884-3.854c-0.763-1.177-1.618-2.275-2.572-3.266  c0.697,1.181,1.261,2.426,1.711,3.69c0.445,1.264,0.76,2.56,0.868,3.827c0.106,1.265-0.014,2.5-0.414,3.544  c-0.242,0.636-1.008,1.764-1.762,2.699c-2.534,0.44-5,1.056-7.381,1.811c0.014-0.093,0.029-0.179,0.042-0.288  c0.173-1.424-0.051-2.785-0.454-4.009c-0.406-1.228-0.986-2.344-1.652-3.378c-0.669-1.031-1.417-1.995-2.254-2.862  c0.611,1.035,1.105,2.126,1.5,3.234c0.391,1.108,0.667,2.244,0.761,3.355c0.093,1.109-0.013,2.191-0.363,3.106  c-0.153,0.401-0.731,1.281-1.396,2.192C19.531,33.858,10.78,40.542,5.522,45.204l0.995,1.123l-0.996-1.122  c-2.5,2.218-3.898,3.71-3.957,3.772l-0.962,1.031l0.97,1.023c0.059,0.062,1.462,1.539,3.948,3.768h0  c7.195,6.449,26.147,21.451,46.694,21.451c26.579,0,45.521-24.303,46.313-25.337l0.771-1.007L98.436,48.978z M52.215,73.25  c-2.572,0-5.121-0.257-7.626-0.708c-9.207-2.769-15.935-11.32-15.935-21.417c0-12.264,9.923-22.249,22.161-22.358  c0.837,0.016,1.671,0.049,2.498,0.112c11.257,1.153,20.068,10.69,20.068,22.247c0,11.025-8.022,20.207-18.535,22.028  C53.977,73.211,53.101,73.25,52.215,73.25z M6.522,53.682l1.001-1.117c-1.176-1.054-2.106-1.939-2.749-2.568  c0.638-0.626,1.564-1.506,2.738-2.547c5.041-4.47,16.716-13.645,30.995-17.221c-7.095,4.264-11.854,12.034-11.854,20.897  c0,7.697,3.592,14.567,9.184,19.035C23.093,65.562,12.454,56.984,7.524,52.564L6.522,53.682z M64.604,71.338  c6.496-4.38,10.777-11.806,10.777-20.213c0-8.204-4.08-15.469-10.313-19.886c12.077,3.892,21.96,11.443,27.17,16.008  c-0.992,1.772-1.31,4.022,0.205,6.019C87.347,58.561,77.336,67.457,64.604,71.338z M93.144,52.527  c-1.188-1.688-0.735-3.428-0.132-4.594c0.986,0.886,1.765,1.627,2.309,2.161C94.815,50.69,94.08,51.527,93.144,52.527z"/>
</svg>