<?xml version="1.0" encoding="utf-8"?>
<!-- Generator: Adobe Illustrator 15.1.0, SVG Export Plug-In . SVG Version: 6.00 Build 0)  -->
<!DOCTYPE svg PUBLIC "-//W3C//DTD SVG 1.1//EN" "http://www.w3.org/Graphics/SVG/1.1/DTD/svg11.dtd">
<svg version="1.1" id="Layer_1" xmlns="http://www.w3.org/2000/svg" xmlns:xlink="http://www.w3.org/1999/xlink" x="0px" y="0px"
	 width="792px" height="612px" viewBox="0 0 792 612" enable-background="new 0 0 792 612" xml:space="preserve">
<g>
	<g>
		<path d="M509.754,267.758c32.154-0.018,64.294-0.928,96.41-2.434c16.329-0.766,32.649-1.697,48.965-2.705
			c2.392-0.148,4.666,1.957,6.99,2.389c2.026,0.376,4.041,0.548,6.098,0.261c6.073-0.848,11.637-3.321,17.229-5.727
			c14.06-6.049,29.179-7.473,43.667-12.028c8.274-2.602,17.485-7.028,22.308-14.602c5.781-9.082,3.514-19.581,3.248-29.739
			c-0.298-11.375,6.465-21.077,7.766-32.196c2.779-23.757-7.208-47.1-5.938-70.896c0.563-10.56,1.912-21.053,1.925-31.643
			c0.011-8.776-0.795-18.59-6.408-25.741c-5.906-7.525-16.952-4.725-25.012-3.575c-6.813,0.972-13.146-0.499-19.855-1.6
			c-6.363-1.044-12.704-1.572-19.151-1.391c-31.654,0.886-63.596-3.392-95.136,0.458c-16.779,2.048-33.186,4.847-50.147,5.267
			c-16.694,0.413-33.071-1.289-49.498-4.087c-29.959-5.104-59.63,2.705-89.547,3.725c-33.202,1.133-66.407-1.744-99.484-4.232
			c-31.965-2.404-63.883-3.499-95.927-4.091c-16.226-0.3-32.454-0.461-48.682-0.4c-13.978,0.053-28.242-0.385-42.134,1.379
			c-16.793,2.132-32.738,9.384-42.704,23.455c-10.063,14.208-12.382,32.588-12.702,49.548c-0.223,11.777,1.508,23.49,1.134,35.25
			c-0.464,14.596-4.447,28.842-6.58,43.229c-3.742,25.236-0.353,50.45,2.078,75.628c0.044,0.46,1.989,0.075,1.932-0.518
			c-1.567-16.234-3.587-32.435-3.84-48.762c-0.246-15.891,2.399-31.296,5.34-46.838c2.538-13.41,3.386-26.214,2.422-39.832
			c-0.741-10.478-0.854-21.024,0.161-31.487c1.707-17.611,7.539-35.468,21.747-46.908c20.254-16.307,50.036-13.178,74.281-13.27
			c32.955-0.124,66.028,0.27,98.954,1.722c32.776,1.445,65.428,4.881,98.196,6.466c15.635,0.756,31.294,1.011,46.94,0.477
			c15.46-0.527,30.623-3.04,45.996-4.523c15.85-1.528,31.277-0.853,46.947,1.872c15.202,2.644,30.689,3.413,46.096,3.031
			c15.78-0.39,31.213-2.726,46.794-5.015c17.035-2.502,34.416-1.885,51.559-1.217c15.634,0.609,31.126,0.943,46.763,0.505
			c12.268-0.344,24.27,4.567,36.429,3.16c6.262-0.724,12.627-2.446,18.893-0.863c5.07,1.281,8,6.511,9.68,11.03
			c3.521,9.469,2.741,20.545,2.12,30.424c-0.604,9.619-2.086,19.311-1.618,28.964c0.633,13.052,3.537,25.893,5.234,38.824
			c1.629,12.404,1.992,24.729-2.77,36.49c-3.841,9.486-4.261,17.486-3.718,27.513c0.327,6.023,0.518,11.92-1.913,17.558
			c-2.608,6.05-8.238,10.241-13.874,13.236c-13.07,6.946-28.683,7.614-42.677,11.899c-6.08,1.862-11.788,4.688-17.701,6.991
			c-4.811,1.873-9.795,3.066-14.866,1.58c-3.547-1.039-2.854-2.244-6.233-2.034c-16.314,1.016-32.637,1.927-48.965,2.705
			c-32.114,1.529-64.259,2.416-96.41,2.434C509.979,266.875,508.462,267.758,509.754,267.758L509.754,267.758z"/>
	</g>
</g>
<g>
	<g>
		<path d="M363.937,309.798c-15.819,0.521-31.44-2.256-46.957-4.989c-15.391-2.712-30.719-4.398-46.257-5.964
			c-15.806-1.594-31.592-3.385-47.447-4.423c-14.637-0.959-29.286-1.327-43.932-2.077c-14.734-0.755-28.471-4.023-42.863-6.885
			c-14.136-2.811-28.679-3.313-42.72-6.577c-8.817-2.05-18.855-5.676-27.982-3.775c-6.538,1.362-8.171,10.125-8.397,15.485
			c-0.403,9.577,2.016,19.268,3.71,28.626c2.211,12.216,1.692,23.877,0.167,36.189c-1.741,14.055-3.778,27.896-2.111,42.071
			c1.977,16.82,3.735,33.451,3.474,50.429c-0.241,15.651-3.268,30.887-4.518,46.428c-0.48,5.977,0.044,12.109,1.979,17.801
			c2.446,7.198,3.529,12.19,0.513,19.62c-1.958,4.824-3.494,8.836-2.445,14.056c0.823,4.101,3.037,7.748,6.002,10.64
			c5.661,5.521,14.142,7.345,21.713,8.249c22.757,2.718,45.63-2.73,68.445,0.936c7.125,1.146,13.798,3.668,20.804,5.212
			c5.245,1.155,10.595,0.845,15.876,0.167c6.375-0.817,12.694-1.791,19.108-2.288c7.131-0.553,14.103,1.776,20.805,3.883
			c13.15,4.132,26.651,4.807,40.303,6.125c14.508,1.4,29.05,2.574,43.636,2.444c13.9-0.123,27.104-2.437,40.395-6.405
			c13.591-4.058,26.883-8.724,41.142-9.771c16.396-1.205,33.229,0.085,49.667,0.234c15.442,0.14,31.162,0.683,46.558-0.681
			c13.705-1.213,26.71-6.537,40.577-6.398c7.425,0.074,14.971,1.604,22.313,2.61c8.297,1.138,16.594,2.264,24.925,3.129
			c15.581,1.62,31.1,2.104,46.731,1c16.284-1.148,32.44-3.732,48.582-6.084c14.608-2.128,29.741-3.333,43.806-8.071
			c9.256-3.117,17.895-8.265,21.804-17.542c3.479-8.258,4.647-18.522,5.599-27.331c1.423-13.178-0.188-26.538-2.135-39.571
			c-1.978-13.229-4.518-26.059-3.348-39.504c1.04-11.948,4.551-23.544,7.475-35.123c3.18-12.594,4.474-24.82,4.308-37.809
			c-0.174-13.67-1.063-27.293,1.322-40.838c2.285-12.977,7.369-25.513,8.117-38.729c0.673-11.877-5.018-22.952-6.292-34.606
			c-0.093-0.846-2.029-0.378-1.932,0.518c0.729,6.669,2.704,13.012,4.396,19.478c2.065,7.894,2.245,15.576,0.816,23.595
			c-2.689,15.098-7.913,29.174-8.631,44.668c-0.728,15.683,1.132,31.333-0.559,46.996c-1.484,13.762-6.546,27.093-9.279,40.633
			c-2.88,14.268-2.055,27.744,0.22,42.003c2.563,16.065,5.009,32.146,3.568,48.453c-0.546,6.179-1.896,12.326-3.108,18.405
			c-1.058,5.305-2.575,10.439-5.955,14.753c-9.143,11.667-27.604,13.22-41.04,15.608c-16.521,2.937-33.401,4.953-50.057,7.004
			c-16.683,2.055-33.491,3.128-50.278,1.852c-16.078-1.223-31.979-3.42-47.959-5.529c-6.485-0.856-12.825-1.591-19.367-1.118
			c-6.234,0.452-12.375,1.995-18.45,3.376c-15.505,3.524-31.013,3.525-46.84,3.565c-16.688,0.043-33.377-0.31-50.065-0.43
			c-13.834-0.1-26.582,1.011-39.925,4.782c-13.744,3.885-27.059,8.87-41.319,10.632c-15.206,1.879-30.804,0.816-46.018-0.403
			c-7.231-0.58-14.449-1.31-21.668-2.019c-7.893-0.774-15.847-1.118-23.569-3.02c-5.736-1.412-11.268-3.536-17.008-4.94
			c-5.792-1.417-11.25-1.163-17.122-0.718c-6.091,0.462-12.086,1.723-18.165,2.287c-7.939,0.737-14.876-1.785-22.409-3.775
			c-23.25-6.142-46.604-1.97-70.205-2.474c-9.341-0.199-19.48-1.405-27.191-7.12c-3.786-2.806-6.062-6.961-7.188-11.457
			c-1.73-6.906,2.737-12.906,4.402-19.355c1.274-4.938-0.768-9.796-2.47-14.32c-2.724-7.244-2.306-15.238-1.431-22.778
			c1.822-15.685,4.035-31.051,4.035-46.891c0-15.755-1.923-31.24-3.758-46.849c-1.772-15.074,1.292-30.164,2.97-45.095
			c1.258-11.195,0.974-21.468-1.021-32.49c-1.785-9.861-4.272-20.068-3.26-30.149c0.432-4.303,2.053-8.584,6.027-10.74
			c4.832-2.621,14.358,0.541,19.215,1.646c12.005,2.729,23.857,4.54,36.077,6.165c10.002,1.331,19.62,3.717,29.472,5.76
			c9.352,1.94,18.791,2.959,28.319,3.495c20.309,1.142,40.602,1.577,60.875,3.418c21.293,1.934,42.867,3.507,63.985,6.859
			c19.983,3.171,39.867,7.852,60.229,7.18C364.823,311.114,365.255,309.754,363.937,309.798L363.937,309.798z"/>
	</g>
</g>
</svg>
