<?xml version="1.0" encoding="utf-8"?>
<!-- Generator: Adobe Illustrator 15.1.0, SVG Export Plug-In . SVG Version: 6.00 Build 0)  -->
<!DOCTYPE svg PUBLIC "-//W3C//DTD SVG 1.1 Tiny//EN" "http://www.w3.org/Graphics/SVG/1.1/DTD/svg11-tiny.dtd">
<svg version="1.1" baseProfile="tiny" id="Layer_2" xmlns="http://www.w3.org/2000/svg" xmlns:xlink="http://www.w3.org/1999/xlink"
	 x="0px" y="0px" width="880px" height="612px" viewBox="0 0 880 612" xml:space="preserve">
<path fill="none" stroke="#000000" stroke-width="0.5" stroke-miterlimit="10" d="M836.264,313.632
	c0-15.703,3.643-32.366,2.101-47.599c-1.271-12.556-8.272-27.096-9.47-41.616c-1.375-16.674,4.189-32.018,4.211-48.622
	c0.012-8.861-9.317-47.841,2.323-49.185c1.36-11.615,4.125-21.839,1.015-34.049c-0.229,1.08-0.023,2.065,0.613,2.956
	c1.671-10.848-2.79-23.655-3.902-34.541c-0.262-2.558-1.021-11.303-2.154-14.712c-2.335-7.021-7.944-5.554-10.706-12.448
	c-18.427-3.346-34.55-8.604-54.607-8.604c-21.26,0-40.81-3.158-62.03-3.158c-56.147,0-112.295,0-168.441,0
	c-24.547,0-51.557-3.509-75.841,1.028c-9.631,1.8-16.857,6.214-27.531,5.288c-10.872-0.943-20.899-4.757-31.315-6.316
	c-20.844-3.119-46.936,0.059-68.233,2.105c-17.596,1.691-33.978-2.105-53.08-2.105C219.039,22.053,159.102,21,98.728,21
	c0.119,0,2.406,0,0.851,0c-19.287,0-37.761-1.802-54.84,5.494c-23.085,9.861-10.313,22.521-7.398,41.899
	c3.205,21.304,4.125,42.96,4.186,64.97c0.057,20.813-5.225,39.461-4.186,60.502c0.67,13.571-0.56,27.241-0.024,40.822
	c0.319,8.103-0.985,17.167,0,25.284c0.707,5.821,4.141,11.091,5.317,16.764c1.901,9.166,4.232,27.402-4.031,32.998
	c-9.719,6.583-21.289-4.368-20.047-14.862c6.795-2.757,17.08-2.562,18.652,6.208c-4.008,1.388-9.153,1.322-12.523-0.079"/>
</svg>
