<?xml version="1.0" encoding="utf-8"?>
<!-- Generator: Adobe Illustrator 15.1.0, SVG Export Plug-In . SVG Version: 6.00 Build 0)  -->
<!DOCTYPE svg PUBLIC "-//W3C//DTD SVG 1.1 Tiny//EN" "http://www.w3.org/Graphics/SVG/1.1/DTD/svg11-tiny.dtd">
<svg version="1.1" baseProfile="tiny" id="Layer_1" xmlns="http://www.w3.org/2000/svg" xmlns:xlink="http://www.w3.org/1999/xlink"
	 x="0px" y="0px" width="880px" height="612px" viewBox="0 0 880 612" xml:space="preserve">
<g>
	<g>
		<path fill="#010101" d="M410.193,322.747c0.705-0.295,2.754-0.751,4.686-0.895c1.771-0.409,3.681,0.707,5.209-0.386
			c0.687-0.491,1.631-2.327,2.649-1.384c0.594,0.551-0.033,1.598,0.465,2.214c-0.091-0.708-0.403-2.236-1.409-2.025
			c0.67,0.599,1.114,1.525,1.667,2.185c0.049-0.718,0.026-1.458,0.026-2.185c0,0.672,0.02,1.367-0.03,2.024
			c-0.23-0.609-0.423-1.323-0.49-1.984c-0.059,0.738-0.275,1.521-0.653,2.147c-0.437-0.304-0.433-0.924-0.785-1.32
			c-0.516,0.361-0.488,0.93-0.525,1.563c0.063-1.005,0.126-1.987,0.13-3.007c0.19,0.446,0.036,1.555,0.268,2.211
			c-0.105-0.563-0.217-1.188-0.119-1.771c0.271,0.02,0.751,0.135,1.007,0.262c-0.074,1.619,0.633,3.07,0.376,4.679
			c-0.303,1.899-2.034,2.776-1.775,4.822c0.783,0.126,1.339-0.218,2.072-0.404c0.754-0.189,1.466-0.093,2.219-0.248
			c0.599-0.124,1.045-0.648,1.711-0.653c0.427-0.003,0.748,0.378,1.167,0.418c0.873,0.082,1.637-0.184,2.487-0.304
			c1.294-0.183,2.016,0.158,3.234,0.395c1.193,0.232,1.901-0.228,3.035-0.623c2.889-1.009,3.435,1.301,5.634,2.346
			c1.229-1.605-2.13-2.668-3.28-2.606c-1.809,0.096-5.443,0.837-7.019-0.103c0.958,0.091,1.703-0.409,2.705-0.163
			c1.175,0.289,2.88,0.803,3.869,1.457c-1.584-0.478-3.445-0.76-5.14-0.929c-1.116-0.111-2.2-0.129-3.307-0.028
			c-1.321,0.119-2.728,0.66-4.034,0.306c0.382,1.873,2.254-0.009,3.243,0.138c-0.482,0.345-1.619,0.425-2.339,0.602
			c-1.263,0.31-2.837,1.453-4.148,1.18c0.865-0.388,3.703-0.707,3.997-1.389c-1.641-0.084-3.314,0.379-5.046,0.239
			c0.25,0.102,0.741,0.275,0.75,0.28c0.121-1.099-1.405-1.554-2.109-0.934c0.609,0.64,2.01-0.226,2.873-0.113
			c0.122,1.991-3.513,2.066-2.492-0.271c0.232,1.703,1.061,1.507,2.513,0.911c1.463-0.601,2.326-1.01,3.918-1.148
			c2.45-0.212,3.236,0.024,3.829,2.481c0.608,2.515,0.311,4.906-0.3,7.38c0.091-2.345-0.521-4.651-0.52-6.979
			c0.378,3.011-0.421,7.837,1.696,10.39c1.627,1.962,4.413,1.614,6.407,0.68c1.179-0.552,2.28-1.244,2.717-2.452
			c0.542-1.495,0.998-3.684,0.947-5.285c-0.034-1.135,0.175-3.392-0.683-4.248c-1.719-1.716-4.337,0.831-6.21-0.308
			c1.144,0.229,2.533-0.727,3.659-1.004c0.705-0.173,1.749-0.244,2.291-0.675c0.081,1.894-0.142,8.144,1.313,9.129
			c0.152-2.901,0.336-5.938,0.281-8.842c-0.014,4.205-1.572,8.391-1.568,12.604c0.012-1.953,0.225-4.324,1.15-6.083
			c0.328,3.17-1.766,6.466-3.989,8.566c0.533-0.69,2.688-1.137,2.142,0.272c-0.336,0.865-3.315,1.171-3.991,0.777
			c0.818-0.825,2.323-1.521,3.402-1.013c-0.72,0.217-1.863,0.437-2.727,0.524c0.659-0.292,1.354-0.722,2.027-1.056
			c-0.91,0.038-2.287,0.278-2.84,1.04c1.13-0.78,2.456-2.276,4.015-1.714c-1.522,0.095-4.235,2.334-5.493,1.333
			c0.683-0.242,1.781-0.371,2.604-0.532c-1.004,1.369-2.794,1.763-4.236,0.823c0.804-0.173,1.628,0.346,2.278,0.77
			c-1.217-0.255-2.183-1.92-2.578-2.993c0.98,0.715,1.933,1.479,2.708,2.424c-0.922-0.981-2.193-1.424-2.918-2.601
			c0.517,0.927,1.173,1.724,1.871,2.525c-0.934-0.478-1.769-1.333-2.694-1.703c0.347,0.688,1.244,1.021,1.913,1.293
			c-1,0.061-1.987-0.604-2.53-1.395c0.646,0.358,1.605,0.817,1.501,1.636c-0.804-0.195-0.965-1.476-0.633-2.098
			c0.157,0.291,0.315,0.801,0.369,1.199c-0.46-1.66-0.87-3.658-1.427-5.414c0.035,0.613,0.235,1.244,0.508,1.753
			c0.103-1.439,0.119-2.996-0.137-4.409c-0.247-1.365-0.66-2.47,0.141-3.676c-0.275,0.783-0.241,2.386,0.029,3.284
			c-0.028-1.219,0.216-3.147,0.123-4.585c-0.024,2.331-1.089,4.536-0.385,6.877c-0.417-3.151-1.249-7.627,3.131-7.814
			c2.449-0.104,5.233-0.938,7.698-0.765c-0.211,2.783,0.021,5.853,0.013,8.718c0.003-1.661,0.294-3.246,0.401-4.885
			c-0.515,2.21-0.099,4.917-0.169,7.198c-0.355-1.459,0.131-3.033-0.26-4.506c-1.455,1.468-1.146,4.114-1.149,6.041
			c-0.007-1.811-0.109-4.265-0.135-6.301c0.17,1.865,0.914,3.772,0.893,5.614c-0.98-2.433,0.738-5.946-0.141-8.588
			c-0.646,2.158,0.215,4.885,0.167,7.141c0.009-2.746,0.698-5.814,0.365-8.505c-0.624,1.283-0.575,3.466-0.136,4.833
			c0.727-1.73,0.586-4.081,0.959-5.95c-0.405,1.233,0.09,2.542-0.033,3.807c-1.074-1.237-1.008-3.796-1.026-5.389
			c0.224,0.641,0.411,1.423,0.142,2.044c-0.309-0.047-1.355-0.809-1.439-0.791c-0.732,0.162-0.336,1.532-1.161,1.706
			c-0.203-0.604-0.164-1.267-0.546-1.7c-0.494,0.426-0.476,1.138-0.888,1.575c-0.045-0.681-0.011-1.394-0.049-2.074
			c-0.586,0.421-0.553,1.276-0.797,1.951c-0.198-0.581-0.266-1.488-0.253-2.183c-0.375,0.456-0.546,1.076-0.659,1.635
			c-0.189-0.387-0.336-0.897-0.461-1.275c-0.098,0.556-0.258,1.125-0.392,1.667c-0.007-0.461-0.052-0.956-0.189-1.409
			c-0.234,0.416-0.312,1.02-0.5,1.529c-0.081-0.63-0.144-1.262-0.287-1.886c-0.195,0.555-0.278,1.188-0.49,1.758
			c-0.174-0.582-0.259-1.193-0.422-1.784c-0.356,0.37-0.432,0.987-0.526,1.526c-0.037-0.859-0.673-1.054-1.121-0.51
			c-0.007-1.305,1.92-2.574,2.333-3.904c0.475-1.529,0.692-3.266,1.123-4.839c-0.399-0.188-0.791-0.346-1.218-0.389
			c0.837,0.058,1.801,0.33,2.058,1.267c0.042-0.467-0.001-0.928-0.17-1.357c-0.292,0.636-0.165,1.348-0.359,2.01
			c-0.149-0.409-0.297-0.926-0.493-1.265c-0.052,0.606,0.036,1.252-0.157,1.798c-0.483-0.661-0.921-1.459-1.058-2.287
			c0.263,0.652,0.503,1.349,0.668,2.022c-0.116-0.633-0.31-1.3-0.372-1.918c0.18,0.446,0.107,1.407,0.098,1.853
			c0.167-0.655,0.27-1.325,0.431-1.983c0.21,1.115,1.073,2.556,2.458,1.563c1.107-0.793,0.466-2.147,0.517-3.271
			c0.049-1.087,0.546-2.223,0.813-3.267c0.235-0.917,0.691-2.536,1.228-3.242c-0.536-0.459-1.392-0.555-2.042-0.261
			c-0.451,0.203-1.983,2.893-2.593,1.682c-0.583-1.156,1.014-0.862,1.417-1.056c0.767-0.368,1.142-1.147,1.845-1.779
			c-0.492,0.621-5.037,2.35-3.031,3.296c-0.225-0.183-0.439-0.356-0.656-0.559c0.127,0.26,0.208,0.308,0.411,0.5
			c0.376-0.874,1.777-1.965,2.898-1.95c1.803,0.023,1.363,2.378,1.901,3.497c0.002-0.949,0.15-2.575-0.571-3.284
			c0.16,0.85,0.405,1.924-0.045,2.716c-0.224-0.26-0.399-0.325-0.508-0.727c0.136,0.275,0.458,0.686,0.631,1.021
			c0.74-0.577,0.54-2.332-0.219-2.854c0.626,0.802,0.603,2.015,0.768,2.984c0.919-0.886-0.496-0.899-0.682-1.179
			c-0.564-0.845-0.668-2.601,0.172-3.342c0.225,0.547-0.1,1.055-0.555,1.385c-1.082-0.66-2.337-1.862-3.358-2.748
			c0.812,0.421,1.706,1.295,2.165,2.071c-0.969-0.802-1.634-2.569-3.086-2.576c0.624,0.066,1.154,0.539,1.411,1.129
			c-0.058-0.099-0.107-0.233-0.169-0.326c-0.307,0.134-0.785,0.135-1.131,0.221c-0.142-0.551-0.531-1.064-0.522-1.659
			c0.626-0.304,2.12-0.16,2.696,0.269c0.93,0.692,0.598,1.805,1.963,2.175c0.317-0.767-0.48-1.673-0.346-2.573
			c0.33,0.085,0.829,0.095,1.146,0.218c-0.272-0.22-0.564-0.624-0.864-0.872c0.268,0.101,0.688,0.093,0.989,0.229
			c-0.078-0.418-0.405-0.729-0.854-0.873c0.379-0.107,0.66-0.206,1.094-0.16c-0.284-0.097-0.478-0.211-0.764-0.339
			c1.854,0.67-0.18,2.534,0.244,3.737c0.321-0.923,0.678-1.993,0.539-2.988c-0.791,0.212-0.976,2.825-1.66,3.606
			c0.012-1.106,0.986-2.056,0.869-3.192c-0.6,0.858-1.084,2.104-1.264,3.078c0.789,0.15,1.962,0.024,2.208,0.95
			c1.028-1.503,4.006-1.059,5.848-0.57c1.211,0.321,2.188,0.956,3.299,1.44c1.297,0.564,1.954,1.627,3.232,2.283
			c2.24,1.149,4.814,0.896,7.195,1.301c1.551,0.264,2.943,1.229,4.438,1.543c3.053,0.641,6.605-0.292,9.711-0.393
			c3.085-0.101,6.198,0.292,9.276,0.134c3.092-0.158,6.07-0.548,9.018-1.571c1.411-0.49,2.824-1.164,4.311-1.31
			c1.244-0.122,2.324,0.264,3.53,0.43c3.188,0.438,6.406-0.287,9.572-0.43c2.903-0.131,5.708,0.003,8.599-0.364
			c2.622-0.332,5.031,0.354,7.609,0.242c2.69-0.115,5.064-0.886,7.684-1.313c2.516-0.411,4.792-0.487,7.322-0.398
			c1.309,0.046,2.667,0.603,3.95,0.439c1.374-0.175,2.197-0.659,3.633-0.4c2.249,0.404,4.371,0.831,6.661,0.884
			c3.978,0.093,7.796-0.606,11.73,0.263c1.854,0.409,264.876,0.374,266.679,0.88c1.116,0.313,2.109,1.243,3.14,1.078l-0.195-0.23
			c-1.601-0.665-268.207-1.679-269.999-1.872c-4.687-0.506-9.253,0.749-13.904,0c-2.932-0.472-4.782-1.361-7.815-0.614
			c-3.273,0.807-5.91,1.54-9.291,1.685c-3.496,0.148-7.024,0.507-10.523,0.233c-3.319-0.259-6.206,0.245-9.392-0.608
			c-1.824-0.488-4.146-0.791-6.049-0.983c-1.944-0.197-4.02,0.06-5.892,0.529c-3.135,0.788-5.491,1.022-8.699,0.978
			c-1.789-0.024-3.458,0.717-5.304,0.625c-1.812-0.091-3.315,0.024-5.116,0.286c-3.141,0.457-6.045,1.68-9.166,2.366
			c-2.539,0.558-4.936,1.43-7.498,1.965c-3.245,0.678-6.339-0.305-9.323-1.511c-1.943-0.787-3.463-1.498-5.104-2.588
			c-0.602-0.398-1.322-0.549-1.885-1.009c-0.814-0.668-1.41-1.621-2.232-2.31c-0.374-0.313-0.705-0.608-1.135-0.849
			c-0.492-0.275-1.063-0.282-1.596-0.43c-0.568-0.156-1.111-0.348-1.672-0.523c-0.559-0.175-1.1-0.383-1.691-0.301
			c-0.406,0.057-0.709,0.182-1.119,0.066c-0.531-0.15-1.071-0.225-1.624-0.169c-0.248,0.025-0.477,0.106-0.719,0.144
			c-0.182,0.027-0.373,0.089-0.557,0.117c-0.393,0.059-0.475,0.06-0.712,0.44c-0.247,0.397-0.591,0.831-0.979,1.09
			c-0.262,0.174-0.467,0.313-0.671,0.564c-0.256,0.316-0.567,0.746-0.929,0.931c0.201-0.401,0.504-0.757,0.785-1.103
			c0.144-0.179,0.434-0.471,0.412-0.718c-0.223,0.088-0.455,0.301-0.664,0.434c-0.25,0.158-0.492,0.332-0.741,0.493
			c-0.378,0.243-1.252,1.185-1.551,0.486c-0.148-0.345,0.16-0.547,0.46-0.688c0.315-0.148,0.525-0.23,0.788-0.47
			c0.338-0.31,0.728-0.557,1.13-0.79c0.34-0.196,0.949-0.576,1.253-0.232c0.071,0.08,0.075,0.298,0.104,0.396
			c0.05,0.169,0.123,0.26,0.209,0.411c0.147,0.265-0.069,0.352-0.286,0.535c-0.454,0.384-0.798,0.961-1.319,1.257
			c-0.252,0.144-0.473,0.283-0.667,0.504c-0.237,0.268-0.36,0.587-0.699,0.746c-0.093-0.343-0.171-0.594-0.396-0.885
			c-0.272-0.353-0.571-0.7-0.878-1.014c-0.014,0.049-0.024,0.135-0.024,0.181c-0.013,0.006,0.066-0.01,0.048-0.014
			c0.105,0.025,0.302-0.191,0.414-0.21c0.153-0.026,0.229,0.092,0.364,0.113c0.247,0.036,0.339-0.162,0.516-0.277
			c0.192-0.123,0.299-0.128,0.463-0.305c0.274-0.294,0.622-0.415,1.004-0.437c0.338-0.02,0.742,0.379,1.056,0.073
			c0.245-0.239,0.25-0.89,0.237-1.197c-0.01-0.211,0.062-0.572-0.076-0.754c-0.087-0.115-0.298-0.139-0.416-0.219
			c-0.214-0.144-0.416-0.355-0.604-0.532c-0.261-0.246-0.526-0.376-0.856-0.512c-0.434-0.178-0.8-0.293-1.267-0.35
			c-0.289-0.034-0.482,0.086-0.745,0.174c0.124,0.574,0.771,0.929,1.273,1.149c0.535,0.236,0.967,0.621,1.484,0.869
			c0.306,0.146,0.848,0.436,1.159,0.227c0.569-0.383,0.138-1.141-0.146-1.572c-0.17-0.261-0.465-0.318-0.647-0.538
			c-0.206-0.25-0.313-0.494-0.58-0.714c-0.253-0.208-0.448-0.479-0.69-0.702c-0.181-0.167-0.436-0.206-0.603-0.373
			c-0.123,0.202-0.273,0.41-0.396,0.63c-0.234,0.42-0.633,0.769-0.883,1.175c0.348-0.354,0.612-0.805,0.889-1.221
			c0.111-0.168,0.247-0.525,0.489-0.379c0.125,0.077,0.159,0.274,0.254,0.395c0.252,0.317,0.6,0.687,0.945,0.894
			c0.458,0.273,1.091,0.417,1.41,0.873c0.151,0.217,0.058,0.514,0.282,0.67c0.089,0.063,0.309,0.119,0.419,0.146
			c0.259,0.062,0.298,0.034,0.44,0.324c0.082,0.167,0.137,0.351,0.236,0.506c0.086-0.031,0.066-0.071,0.116-0.139
			c0.136-0.183,0.23-0.503,0.344-0.709c0.092-0.168,0.158-0.355,0.215-0.54c0.082-0.277,0.191-0.554,0.254-0.839
			c0.091-0.427,0.232-0.844,0.385-1.249c0.093-0.251,0.258-0.472,0.354-0.718c0.203-0.532-0.256-0.503-0.634-0.644
			c-0.181-0.066-0.366-0.161-0.556-0.21c-0.143-0.037-0.253-0.021-0.396-0.08c-0.111-0.047-0.226-0.137-0.338-0.153
			c-0.021,0.179-0.161,0.352-0.214,0.529c-0.083,0.28-0.162,0.57-0.226,0.859c-0.16,0.734-0.57,1.603-0.488,2.363
			c0.088-0.084,0.068-0.218,0.065-0.339c-0.036,0.191-0.091,0.401-0.065,0.596c0.121-0.201,0.098-0.531,0.251-0.724
			c0.142,0.183-0.12,0.709,0.093,0.792c0.075-0.145,0.135-0.34,0.228-0.46c-0.036,0.133-0.151,0.234-0.188,0.361
			c-0.03,0.104,0.005,0.207-0.016,0.309c-0.045,0.229-0.271,0.327-0.341,0.555c0.089,0.016,0.177,0.063,0.243,0.117
			c0.004-0.023,0.005-0.044,0.009-0.066c0.126,0.149,0.24,0.396,0.186,0.596c-0.028-0.271,0.099-0.505,0.108-0.758
			c-0.004,0.002-0.059,0.003-0.066,0.003c0.001,0.002,0.035,0.035,0.037,0.018c-0.081,0.063-0.19,0.079-0.229-0.021
			c-0.034,0.111-0.013,0.284-0.022,0.417c-0.07-0.262-0.045-0.351,0.168-0.465c0.063,0.147-0.046,0.444-0.22,0.479
			c0.034,0.044,0.028,0.038,0.081,0.052c0.091-0.215,0.144-0.458,0.161-0.69c0.011-0.137-0.021-0.255,0.067-0.373
			c0.096,0.04,0.174,0.119,0.279,0.142c-0.193,0.296-0.332,0.556,0.051,0.686c0.207,0.07,0.457,0.096,0.647,0.218
			c0.148,0.097,0.217,0.271,0.369,0.365c0.458,0.283,2.849,0.271,2.663-0.617c-0.301,0.305-0.518,0.647-0.938,0.827
			c-0.436,0.187-1.156-0.231-0.985-0.765c0.093-0.287,0.528-0.283,0.769-0.353c0.289-0.081,0.568-0.189,0.854-0.275
			c0.217-0.064,0.491-0.102,0.646-0.278c-0.199,0.005-0.418,0.014-0.612-0.021c-0.188-0.034-0.303-0.107-0.492-0.093
			c-0.225,0.017-0.461,0.056-0.693,0.075c-0.481,0.042-1.012,0.465-1.486,0.384c0.13-0.113,0.338-0.18,0.51-0.203
			c0.264-0.034,0.604-0.093,0.875-0.064c-0.248,0.094-0.646,0.195-0.912,0.181c0.198-0.065,0.637,0.011,0.872,0.039
			c0.347,0.044,0.624-0.022,0.97-0.04c0.249-0.012,0.501,0.016,0.74-0.045c0.23-0.057,0.447-0.132,0.677-0.161
			c0.015,0.298,0.026,0.602,0.026,0.901c-0.002,0.495-0.089,1.019-0.069,1.505c0.001-0.468,0.069-0.922,0.069-1.389
			c0-0.297,0.096-0.769-0.029-1.041c-0.125,0.291-0.186,0.551-0.156,0.908c0.032,0.413,0.176,0.875,0.11,1.291
			c-0.153-0.172-1.002-0.217-1.2-0.166c0.291,0.075,0.777,0.031,1.047-0.103c-0.129,0.149-0.629,0.004-0.838,0.015
			c-0.291,0.015-0.585,0.023-0.882,0.023c-0.319,0-0.657,0.032-0.975,0c-0.276-0.028-0.573-0.203-0.849-0.188
			c0.127,0.259,0.156,0.582,0.27,0.854c0.192,0.464,0.447,0.945,0.715,1.369c-0.063-0.434-0.238-0.785-0.461-1.155
			c-0.215-0.359-0.247-0.782-0.578-1.083c0.155,0.272,0.423,0.562,0.539,0.851c0.181,0.451,0.321,1.015,0.418,1.489
			c0.055,0.268,0.092,0.527,0.201,0.779c0.086,0.197,0.277,0.345,0.186,0.469c-0.227,0.303-0.887,0.397-1.197,0.581
			c0.286-0.125,0.713-0.353,0.893-0.602c-0.141,0.092-0.271,0.104-0.414,0.165c-0.148,0.063-0.238,0.164-0.372,0.256
			c-0.114,0.078-0.754,0.45-0.898,0.384c-0.127-0.058-0.266-0.743-0.301-0.894c-0.11-0.485-0.197-0.985-0.354-1.46
			c-0.01,0.155,0.151,0.367,0.209,0.52c0.09,0.24,0.128,0.51,0.233,0.742c-0.201-0.438-0.269-0.946-0.425-1.403
			c-0.144-0.42-0.381-1.146-0.225-1.586c-0.012,0.097,0.004,0.353,0.063,0.485c0.078-0.138,0.047-0.314,0.045-0.453
			c0.107,0.29,0.071,0.684,0.241,0.942c-0.011-0.445-0.049-0.898-0.021-1.342c0.282,0.357,0.366,1.094,0.409,1.538
			c0.095,1.012-0.609,2.103-0.811,3.065c-0.086,0.418-0.07,0.706-0.047,1.104c0.027,0.432-0.096,0.882-0.113,1.315
			c-0.017,0.404-0.032,0.822-0.084,1.222c-0.043,0.336,0.031,0.767-0.104,1.08c-0.129,0.296-0.507,0.536-0.712,0.785
			c-0.259,0.314-0.576,0.773-0.975,0.929c-0.552,0.215-0.084-0.498-0.054-0.721c0.047-0.34-0.068-0.641-0.118-0.966
			c-0.026-0.173,0.014-0.35-0.101-0.493c0.019-0.007,0.088-0.02,0.104-0.021c-0.009,0.132-0.047,0.266-0.086,0.396
			c-0.135,0.44-0.389,0.87-0.188,1.324c0.069,0.159,0.303,0.508,0.53,0.347c0.518-0.369-0.965-1.388-1.063-1.604
			c-0.116-0.262,0.009-0.396,0.183-0.56c0.141-0.133,0.402-0.45,0.624-0.438c0.375,0.021,0.111,0.518-0.001,0.697
			c-0.307,0.488-0.858,0.8-1.295,1.155c-0.194,0.157-1.088,0.997-0.9,0.216c0.122-0.51,0.392-0.887,0.833-1.163
			c0.213-0.135,0.449-0.223,0.668-0.347c0.146-0.082,0.332-0.261,0.494-0.298c0.232-0.055,0.129,0.026,0.298,0.154
			c0.068,0.055,0.172,0.04,0.255,0.125c0.274,0.279,0.397,0.991,0.466,1.361c0.045,0.244,0.079,0.493,0.064,0.741
			c-0.266-0.043-0.547,0.065-0.826,0.073c-0.439,0.012-0.876-0.017-1.304,0.092c-0.252,0.063-0.581,0.181-0.741-0.086
			c-0.108-0.18-0.036-0.404-0.007-0.636c0.046-0.356,0-0.705-0.023-1.063c-0.021-0.324-0.105-0.803,0.011-1.114
			c0.107-0.291,0.486-0.204,0.755-0.207c0.327-0.002,0.678,0.069,1.009,0.1c0.325,0.028,0.797,0.122,1.082-0.052
			c-0.038,0.165,0.008,0.349-0.027,0.527c-0.048,0.252-0.057,0.461-0.04,0.724c0.015,0.248,0.026,0.496,0.052,0.744
			c0.018,0.159,0.102,0.426,0.023,0.58c-0.045,0.091-0.132,0.173-0.262,0.179c-0.412,0.021-0.792-0.066-1.229-0.001
			c-0.498,0.074-0.997,0.129-1.479,0.212c-0.137-0.999,0.229-2.038,0.182-3.065c-0.019,0.409,0.103,1.002,0.186,1.438
			c-0.005-0.159-0.072-0.317-0.099-0.477c-0.043-0.256,0.004-0.536-0.065-0.782c0.022,0.411,0.086,0.834,0.047,1.257
			c-0.03,0.34-0.164,0.724-0.088,1.065c0.061,0.271,0.095,0.354,0.058,0.654c-0.04,0.33,0.104,0.361,0.241,0.611
			c0.141,0.257,0.061,0.633-0.006,0.896c-0.269,1.059-0.817,2.077-0.919,3.16c-0.067,0.702,0.35,1.153,0.899,1.534
			c0.461,0.32,0.992,0.426,1.547,0.477c0.755,0.07,1.54,0.095,2.298,0.099c1.09,0.007,2.227-0.136,3.269-0.461
			c-0.264,0.074-0.586-0.081-0.872-0.073c-0.544,0.014-1.076,0.158-1.621,0.163c-0.506,0.005-1.008-0.067-1.514-0.071
			c-0.542-0.003-1.084-0.032-1.623-0.097c-0.416-0.05-0.816-0.183-1.229-0.234c-0.448-0.055-0.927-0.237-1.366-0.087
			c-0.445,0.153-1.123,0.552-1.386,0.951c-0.141,0.214-0.173,0.495-0.285,0.725c-0.167,0.341-0.419,0.693-0.512,1.062
			c-0.095,0.379-0.159,0.799-0.232,1.185c-0.228,1.204-0.271,2.402-0.155,3.618c0.134,1.416,0.329,2.731,1.39,3.763
			c0.485,0.47,1.012,0.954,1.566,1.34c0.522,0.363,1.084,0.784,1.728,0.879c0.642,0.095,1.306-0.112,1.938-0.208
			c0.407-0.062,0.792-0.12,1.166-0.306c0.378-0.188,0.705-0.435,1.024-0.708c0.292-0.251,0.666-0.505,0.826-0.869
			c0.207-0.47,0.201-1.007,0.352-1.489c0.118-0.379,0.207-0.761,0.273-1.15c0.057-0.329-0.033-0.625-0.021-0.949
			c0.023-0.577,0.211-1.213,0.322-1.779c0.154-0.799,0.125-1.57,0.162-2.379c0.047-1.007,0.143-2.007,0.123-3.016
			c-0.009-0.464-0.213-1.096-0.066-1.543c0.297,0.287,0.432,1.186-0.068,1.357c-0.234,0.08-0.516-0.093-0.723-0.178
			c-0.377-0.154-0.706-0.218-1.116-0.166c-0.313,0.04-0.804,0.104-1,0.392c-0.139,0.203-0.117,0.283,0.118,0.332
			c0.476,0.099,1.101-0.142,1.58-0.188c0.279-0.028,0.566-0.068,0.848-0.071c-1.074-1.285-3.04-1.099-4.56-1.347
			c-1.099-0.18-2.156-0.355-3.275-0.346c-0.855,0.009-1.696,0.184-2.545,0.262c0.121,0.074,0.324,0.069,0.48,0.087
			c0.428,0.049,0.854,0.112,1.278,0.187c1.128,0.195,2.235,0.519,3.37,0.67c0.526,0.07,1.054,0.126,1.579,0.206
			c0.308,0.047,0.68,0.067,0.951,0.238c0.462,0.29-0.152,0.22-0.372,0.204c-0.976-0.071-1.958-0.203-2.925-0.343
			c-1.52-0.219-3.044-0.26-4.571-0.388c-1.703-0.144-3.368-0.272-5.08-0.212c-0.817,0.029-1.72,0.096-2.507,0.32
			c0.243,0.104,0.583,0.043,0.84,0.045c0.522,0.005,1.05,0.016,1.572,0.047c1.249,0.074,2.478,0.285,3.714,0.471
			c1.142,0.172,2.287,0.318,3.437,0.414c0.501,0.041,1.09-0.035,1.574,0.118c-0.129,0.19-0.767,0.182-0.976,0.21
			c-0.752,0.1-1.509,0.153-2.267,0.175c-0.716,0.02-1.431-0.033-2.145-0.014c-0.16,0.005-0.644-0.05-0.714,0.13
			c0.364,0.109,0.864,0.023,1.234-0.016c0.572-0.062,1.14-0.162,1.714-0.213c0.84-0.074,1.639,0.209,2.479,0.21
			c1.087,0.001,2.19-0.109,3.27-0.231c0.567-0.063,1.14-0.139,1.698-0.262c0.225-0.049,0.475-0.166,0.705-0.129
			c-0.617,0.207-1.375,0.176-2.016,0.274c-0.775,0.119-1.526,0.287-2.313,0.208c-0.884-0.089-1.823-0.098-2.708,0
			c-0.564,0.061-1.313,0.316-1.831-0.041c0.741-0.056,1.5-0.048,2.246-0.092c1.385-0.08,2.695-0.193,4.079-0.001
			c1.233,0.172,2.429,0.159,3.668,0.158c0.385-0.001,0.734,0.035,1.111,0.1c0.131,0.021,0.273,0.001,0.368,0.109
			c-0.226,0.379-0.733,0.466-1.138,0.516c-1.032,0.129-2.13-0.22-3.128-0.424c-0.876-0.179-1.764-0.172-2.647-0.305
			c-0.9-0.136-1.774-0.363-2.684-0.462c-1.278-0.138-2.585-0.098-3.801-0.581c0.792,0.018,1.587,0.003,2.379,0.003
			c1.191,0,2.346,0.147,3.527,0.306c1.289,0.173,2.545,0.379,3.848,0.431c0.713,0.028,1.533-0.016,2.229,0.169
			c-2.131-0.031-4.281-0.27-6.394-0.536c-1.275-0.16-2.556-0.119-3.83-0.276c-0.828-0.102-1.663-0.292-2.502-0.28
			c0.686,0.169,1.543-0.087,2.24-0.109c1.267-0.041,2.536-0.128,3.804-0.071c2.1,0.095,4.159,0.525,6.263,0.223
			c-0.378-0.114-0.899,0.052-1.277,0.116c-0.574,0.1-1.183,0.191-1.765,0.123c-0.662-0.078-1.239-0.315-1.869-0.514
			c-0.81-0.255-1.689-0.311-2.531-0.382c-1.077-0.091-2.152-0.096-3.222-0.265c-1.027-0.164-2.047-0.271-3.088-0.28
			c-0.995-0.009-1.997,0.107-2.989,0.02c-0.32-0.029-0.736-0.049-1.023-0.199c0.932-0.057,1.882-0.09,2.813-0.029
			c1.008,0.067,2.005,0.063,3.005-0.091c0.725-0.111,1.596-0.07,2.324,0.039c0.834,0.124,1.749,0.112,2.591,0.081
			c1.415-0.054,2.813,0.101,4.222,0.11c0.608,0.005,1.209,0.051,1.816,0.071c0.645,0.021,1.247,0.01,1.857,0.261
			c0.296,0.12,0.659,0.104,0.931,0.271c0.164,0.1,0.324,0.278,0.453,0.415c0.549,0.588,0.743,1.106,0.838,1.908
			c0.057,0.475,0.057,1.267,0.344,1.666c0.059-0.913-0.057-1.792-0.064-2.694c-0.008-0.679,0-1.346,0-2.028
			c0.025,0.088,0,0.118-0.029,0.199c-0.096-0.045-0.174-0.163-0.105-0.274c-0.002-0.003,0.041,0.027,0.038,0.027
			c-0.122,0.092-0.249,0.184-0.415,0.163c-0.191-0.023-0.381-0.162-0.584-0.188c-0.228-0.03-0.441,0.044-0.664,0.066
			c0.268,0.014,0.547-0.024,0.818-0.024c-0.26,0.035-0.873-0.029-1.059,0.14c0.239,0.115,0.717,0.068,0.996,0.069
			c-0.529,0.002-1.155,0.265-1.664,0.392c0.047,0.235,0.297,0.447,0.446,0.625c0.211,0.25,0.423,0.499,0.695,0.684
			c0.495,0.334,0.693,0.75,0.478,1.334c-0.226,0.606-0.326,1.188-0.385,1.83c-0.049,0.543-0.023,1.106-0.166,1.634
			c-0.305,1.13-0.535,2.27-0.81,3.406c-0.126,0.524-0.263,1.17-0.165,1.711c-0.174-0.574,0.174-1.244,0.154-1.835
			c-0.012-0.388-0.064-0.768-0.063-1.158c0-0.335-0.121-0.664-0.111-0.991c0.008-0.272,0.021-0.535,0.018-0.813
			c-0.008-0.774,0.173-1.543,0.162-2.319c-0.009-0.643,0.023-1.277,0.023-1.919c0.002,0.447,0.154,1.025,0.117,1.415
			c-0.084-0.275-0.011-0.61,0.028-0.887c0.037-0.27,0.04-0.58,0.108-0.835c0.318,0.148,0.28,0.838,0.28,1.114
			c0,0.52,0.007,1.334,0.273,1.779c0.009-0.152,0.021-0.334,0.097-0.465c0.33,0.27,0.205,0.915,0.193,1.273
			c-0.025,0.782-0.072,1.571-0.191,2.347c-0.041,0.251-0.139,0.536-0.115,0.792c0.586-1.776,1.35-3.451,1.548-5.334
			c-0.394,1.192-0.265,2.523-0.177,3.751c0.044,0.595,0.131,1.193,0.153,1.786c0.022,0.625-0.14,1.279-0.186,1.904
			c-0.262-0.147,0.065-1.563,0.139-1.85c-0.003,0.344-0.05,0.719-0.087,1.065c-0.021,0.192-0.014,0.561-0.188,0.69
			c-0.341-0.373-0.045-1.315-0.073-1.786c-0.222,0.377-0.191,0.999-0.2,1.423c-0.01,0.363,0.035,0.724,0.067,1.085
			c-0.166-0.378-0.21-1.104-0.094-1.5c-0.031,0.504-0.104,1.059-0.213,1.551c-0.058,0.264-0.214,1.048-0.553,1.087
			c-0.225-0.549,0.323-1.223,0.277-1.787c-0.421,0.203-0.536,1.025-0.651,1.425c-0.126,0.438-0.23,0.882-0.369,1.316
			c0.161-0.583,0.387-1.138,0.629-1.692c0.131-0.302,0.471-0.771,0.395-1.119c-0.43-0.092-0.941,1.118-1.066,1.398
			c-0.18,0.399-0.359,0.8-0.531,1.203c-0.061,0.143-0.104,0.332-0.211,0.443c0.154-0.58,0.406-1.135,0.604-1.701
			c0.105-0.307,0.441-1.001,0.297-1.327c-0.381,0.271-0.57,1-0.79,1.401c-0.104,0.192-0.272,0.661-0.509,0.717
			c0.021-0.363,0.348-0.778,0.489-1.111c0.126-0.297,0.239-0.6,0.367-0.897c-0.046,0.442-0.367,0.935-0.57,1.329
			c0.257-0.303,0.475-0.709,0.776-0.963c-0.063,0.331-0.371,1.059-0.668,1.225c0.07-0.352,0.473-0.766,0.697-1.042
			c-0.144,0.474-0.541,0.952-0.836,1.344c-0.23,0.308-0.499,0.744-0.832,0.953c0.172-0.527,0.703-1.062,1.039-1.501
			c-0.16,0.152-0.35,0.36-0.55,0.452c0.194,0.191-0.494,0.526-0.658,0.561c-0.022-0.096,0.061-0.173,0.159-0.181
			c-0.241,0.146-0.53,0.193-0.782,0.293c0.09,0.015,0.178,0.044,0.25,0.097c-0.273,0.258-0.883,0.138-1.223,0.14
			c-0.293,0.001-1.341-0.039-1.485,0.349c-0.148,0.396,0.99,0.165,1.118,0.136c0.367-0.084,1.158-0.225,1.367-0.579
			c-0.125-0.078-0.301-0.045-0.446-0.044c-0.387,0.002-0.755,0.032-1.137,0.087c-0.233,0.034-1.138,0.031-1.269,0.256
			c0.213,0.2,0.737,0.293,1.015,0.4c0.309,0.119,0.769,0.367,1.107,0.319c-0.228-0.101-0.519-0.094-0.762-0.155
			c-0.472-0.119-0.929-0.309-1.382-0.482c-0.657-0.253-1.217-0.598-1.833-0.913c0.212,0.034,0.349,0.244,0.503,0.379
			c0.169,0.148,0.378,0.29,0.583,0.381c-0.281-0.305-0.636-0.545-0.901-0.874c-0.266-0.332-0.461-0.858-0.552-1.276
			c0.226,0.301,0.253,0.704,0.529,0.993c0.169,0.176,0.392,0.241,0.552,0.424c0.212,0.243,0.358,0.556,0.554,0.814
			c0.284,0.377,0.628,0.64,0.981,0.946c0.197,0.171,0.623,0.657,0.938,0.538c0.405-0.153-0.115-0.881-0.405-0.861
			c0.214,0.426,1.321,0.405,1.708,0.444c0.553,0.055,1.172,0.247,1.722,0.11c0.98-0.242,1.785-1.514,2.24-2.344
			c0.215-0.393,0.392-0.991,0.7-1.314c0.026,0.308-0.069,0.604-0.112,0.903c-0.046,0.316-0.049,0.588-0.186,0.882
			c-0.152,0.333-0.354,0.633-0.58,0.922c-0.25,0.322-0.462,0.65-0.771,0.898c-0.232,0.188-0.447,0.402-0.695,0.581
			c-0.202,0.146-0.803,0.757-1.059,0.634c-0.021-0.313,0.413-0.399,0.601-0.563c0.203-0.178,0.335-0.424,0.556-0.6
			c0.219-0.173,0.429-0.348,0.62-0.553c-0.143,0.015-0.351,0.237-0.456,0.342c-0.167,0.164-0.255,0.398-0.425,0.557
			c-0.125,0.116-0.271,0.15-0.411,0.24c-0.153,0.1-0.26,0.221-0.434,0.28c-0.238,0.08-0.359,0.125-0.568,0.273
			c-0.148,0.104-0.813,0.609-0.921,0.348c0.087-0.124,0.122-0.014,0.212-0.046c0.12-0.045,0.162-0.088,0.271-0.165
			c0.4-0.283,0.94-0.23,1.341-0.53c-0.188,0.075-0.37,0.207-0.574,0.269c-0.184,0.057-0.379,0.1-0.556,0.187
			c-0.206,0.102-0.351,0.305-0.604,0.284c-0.228-0.019-0.371-0.102-0.619-0.025c-0.313,0.098-0.612,0.298-0.91,0.397
			c-0.208,0.069-0.43,0.011-0.65,0c-0.465-0.024-1.012-0.044-1.456-0.187c-0.45-0.144-0.755-0.498-1.17-0.666
			c-0.356-0.146-0.673-0.392-0.917-0.684c-0.162-0.193-0.333-0.286-0.492-0.466c-0.15-0.169-0.305-0.335-0.459-0.504
			c-0.136-0.148-0.275-0.283-0.393-0.439c-0.232-0.308-0.295-0.641-0.419-1.011c-0.016,0.151,0.068,0.321,0.205,0.399
			c0.237-0.172-0.253-0.397-0.024-0.481c0.251-0.092,0.661,0.811,0.856,0.929c0.047-0.535-0.194-1.906-0.853-2.02
			c-0.033,0.322,0.417,2.111,0.979,1.693c0.303-0.224,0.03-1.395-0.035-1.667c-0.054-0.228-0.126-0.454-0.206-0.674
			c-0.016-0.044-0.117-0.209-0.094-0.263c0.106-0.252,0.273,0.08,0.327,0.193c0.146,0.309,0.23,0.659,0.464,0.919
			c0.172,0.192,0.758,0.511,0.786,0.749c-0.443-0.033-0.41-0.702-0.482-1.036c-0.105-0.488-0.207-0.965-0.274-1.461
			c-0.058-0.427-0.056-0.904-0.229-1.306c0.202,0.101,0.469,0.146,0.288,0.487c0.001-0.008,0.015-0.045,0.023-0.067
			c0.104,0.257,0.033,0.626,0.057,0.901c0.033,0.377,0.208,0.698,0.393,1.02c0.241,0.422,0.458,0.813,0.653,1.257
			c0.087,0.198,0.18,0.384,0.315,0.549c-0.101-0.504-0.475-0.865-0.804-1.239c-0.285-0.324-0.256-0.724-0.37-1.127
			c-0.427-1.505-0.147-3.103-0.146-4.649c-0.033,0.524-0.078,1.06-0.093,1.595c-0.014,0.482-0.033,0.986,0.047,1.462
			c0.042,0.244,0.161,0.634,0.067,0.875c0.007-0.41-0.089-0.783-0.155-1.183c-0.069-0.417-0.024-0.808-0.005-1.23
			c0.021-0.457,0.03-0.905,0.046-1.362c0.021-0.603,0.1-1.324-0.046-1.912c-0.102,0.266-0.113,0.703-0.162,1.002
			c-0.061,0.362-0.023,0.726-0.023,1.093c0,0.417-0.038,0.84-0.023,1.256c-0.001-0.928-0.028-2.004,0.157-2.971
			c0.098-0.511,0.14-1.037,0.209-1.552c0.055-0.405,0.084-0.832,0.052-1.224c-0.02,0.137-0.102,0.255-0.134,0.392
			c-0.05,0.216-0.028,0.451-0.028,0.671c0,0.457,0.039,0.931-0.005,1.386c-0.047,0.489-0.206,0.984-0.303,1.467
			c-0.046,0.229-0.396,1.018-0.131,1.129c0.073-0.245,0.027-0.594,0.022-0.855c-0.004-0.196,0.052-0.827-0.116-0.95
			c-0.186,0.321-0.15,0.783-0.136,1.14c0.015,0.351,0.171,0.755,0.154,1.087c-0.052-0.145-0.182-0.306-0.339-0.322
			c-0.059,0.202-0.042,0.423-0.071,0.631c-0.041,0.297-0.151,0.565-0.241,0.85c-0.132,0.424-0.201,0.818-0.204,1.261
			c-0.001,0.205,0.029,0.43-0.027,0.63c-0.381-0.631,0.007-1.717-0.53-2.301c-0.098,0.141-0.101,0.4-0.11,0.57
			c-0.023,0.407-0.033,0.823-0.03,1.229c0.007,0.954,0.148,1.893,0.505,2.78c-0.273-0.455-0.533-0.97-0.689-1.479
			c-0.359-1.166-0.353-2.456-0.299-3.668c0.028-0.639-0.027-1.302,0.049-1.937c0.056-0.462,0.055-0.929,0.095-1.398
			c0.05-0.576,0.11-1.151,0.11-1.732c-0.004,0.375-0.084,0.738-0.07,1.126c0.019,0.492-0.003,0.991,0.023,1.484
			c0.028,0.529,0.079,1.041,0.163,1.564c0.08,0.503,0.248,0.995,0.297,1.504c0.055,0.568-0.023,1.146,0.051,1.71
			c-0.004-0.545-0.059-1.07-0.118-1.604c-0.065-0.589,0.09-1.34,0.233-1.914c0.077-0.309,0.084-0.626,0.166-0.93
			c0.083-0.305,0.289-0.548,0.34-0.851c0.039-0.23,0.033-0.467,0.045-0.699c0.041-0.764,0.13-1.53,0.146-2.295
			c-0.434,0.825-0.603,1.756-0.84,2.657c-0.265-0.031-0.216-0.82-0.233-1.015c-0.031-0.351-0.091-0.693-0.114-1.042
			c-0.149,0.219-0.409,1.01-0.186,1.2c0.041-0.444-0.316-0.844-0.316-1.274c0.059,0.155,0.228,0.103,0.318,0.18
			c-0.454,0.238-1.176-0.006-1.668,0.005c-0.17,0.004-0.332,0.076-0.505,0.071c-0.19-0.005-0.363-0.071-0.56-0.071
			c-0.263,0.001-1.225,0.293-1.343-0.065c0.616-0.184,1.481-0.209,2.105-0.044c-0.084,0.071-0.189,0.009-0.298-0.006
			c-0.27-0.034-0.542-0.025-0.814-0.051c-0.364-0.035-1.165,0.062-1.366-0.315c0.496-0.268,1.169-0.279,1.714-0.371
			c0.461-0.078,0.862-0.132,1.323-0.027c0.262,0.058,0.688,0.247,0.95,0.134c-0.406-0.386-3.632-0.249-3.365-1.116
			c0.099-0.321,1.399-0.193,1.688-0.2c0.559-0.013,1.46-0.309,1.979-0.018c-0.333,0.226-0.571,0.292-0.997,0.256
			c-0.759-0.065-1.561,0.008-2.318,0.084c-0.563,0.058-1.107,0.185-1.676,0.188c-0.476,0.003-0.95-0.019-1.424-0.023
			c-0.379-0.005-0.767-0.064-1.143-0.043c0.112,0.271,0.558,0.085,0.759,0.059c0.192-0.024,0.633-0.052,0.358,0.235
			c-0.139,0.145-0.43,0.137-0.61,0.165c-0.232,0.036-0.465,0.098-0.687,0.157c0.25,0.274,0.763,0.435,0.959,0.016
			c0.27,0.082,0.643-0.466,0.816-0.611c0.25-0.211,0.496-0.376,0.793-0.507c0.107-0.048,0.242-0.069,0.297-0.168
			c-0.163-0.103-0.379-0.073-0.562-0.119c-0.229-0.058-0.444-0.175-0.671-0.245c-0.313-0.097-0.596-0.111-0.917-0.149
			c-0.393-0.048-0.752-0.046-1.148-0.041c-0.283,0.003-0.594,0.067-0.874,0.01c0.198,0.107,0.279-0.07,0.458,0.017
			c0,0.027,0.007,0.059,0.007,0.086c0.224,0.105,0.593,0.004,0.833,0.104c-0.047,0.358,0.376,0.652,0.462,1.011
			c0.067,0.281,0.034,0.629-0.071,0.882c-0.072,0.176-0.302,0.367-0.229,0.583c0.138,0.402,0.768-0.189,0.947-0.303
			c0.167-0.105,0.51-0.183,0.508-0.438c-0.001-0.126-0.072-0.239-0.204-0.17c0.005-0.004,0.046-0.034,0.052-0.036
			c0.006,0.06,0.034,0.127,0.025,0.177c0.071-0.157,0.131-0.018,0.241-0.07c0.143-0.068,0.187-0.243,0.372-0.231
			c0.043-0.181,0.173-0.383,0.375-0.395c0.188-0.009,0.327,0.157,0.528,0.143c-0.222-0.076-1.999-0.382-2.041-0.076
			c-0.024,0.183,0.191,0.169,0.333,0.187c0.278,0.034,0.429,0.132,0.697,0.306c0.426,0.276,0.851,0.475,1.324,0.648
			c0.19,0.07,0.417,0.124,0.591,0.229c-0.412,0.055-0.804,0.374-1.229,0.334c-0.463-0.045-0.902-0.007-1.368-0.006
			c-0.455,0.001-0.851-0.161-1.315-0.162c-0.506-0.001-0.959,0.211-1.481,0.182c-0.04-0.314,0.054-0.667,0.02-0.994
			c-0.036-0.341-0.039-0.674-0.022-1.02c0.009-0.198,0.053-0.382,0.063-0.576c0.006-0.108-0.063-0.299-0.023-0.381
			c0.059-0.122,0.239-0.146,0.332-0.249c0.099-0.109,0.165-0.284,0.234-0.413c0.158-0.041,0.223-0.258,0.275-0.397
			c0.124-0.335,0.195-0.658,0.399-0.959c0.216-0.314,0.5-0.576,0.708-0.898c0.154-0.237,0.285-0.474,0.469-0.69
			c0.472-0.554,0.645-1.309,0.354-1.999c-0.178-0.422-0.321-0.943-0.648-1.272c-0.262-0.264-0.601-0.424-0.859-0.694
			c0.188,0.219,0.301,0.561,0.459,0.807c0.091,0.14,0.136,0.289,0.256,0.416c0.181,0.193,0.521,0.322,0.654,0.537
			c-0.196,0.196-0.731-0.059-0.984-0.027c-0.217,0.026-1.117,0.389-1.201,0.075c0.189-0.011,0.388,0.073,0.579,0.085
			c0.509,0.032,1.021-0.072,1.436-0.379c0.24-0.178,0.528-0.85,0.092-0.983c-0.165,0.331-1.248,2.419-1.507,2.205
			c-0.229-0.188,0.209-1.12,0.279-1.328c0.109-0.323,0.381-0.808,0.321-1.155c-0.216,0.013-0.34,0.244-0.438,0.415
			c-0.261,0.451-0.428,0.971-0.654,1.441c-0.232,0.483-0.43,0.5-0.477-0.009c-0.04-0.429,0.287-0.814,0.274-1.242
			c-0.006-0.226-0.289-1.011,0-1.119c0.06-0.023,0.19,0.076,0.254,0.072c0.098-0.006,0.186-0.08,0.285-0.11
			c0.27-0.082,0.533-0.065,0.811-0.053c0.318,0.015,0.546,0.038,0.848,0.111c0.11,0.026,0.236,0.011,0.337,0.045
			c0.071,0.024,0.085,0.076,0.176,0.079c0.039,0.653,0.003,1.306,0.003,1.963c0,0.299,0.115,0.663-0.227,0.729
			c-0.137,0.027-0.322,0.043-0.469,0.042c-0.107-0.001-0.179-0.072-0.265-0.089c-0.132-0.024-0.188,0.026-0.313,0.038
			c-0.2,0.017-0.422-0.032-0.628-0.042c-0.268-0.013-0.888-0.143-1.108,0.021c-0.063-0.223-0.031-0.391,0.002-0.624
			c0.054-0.385,0.024-0.753,0.151-1.132c0.022,0.361,0.123,0.823,0.027,1.171c-0.018-0.29,0.089-0.623,0.025-0.916
			c-0.022-0.098-0.09-0.164-0.113-0.258c-0.042-0.172,0.019-0.363,0.021-0.536c0.001-0.174-0.135-0.514-0.03-0.647
			c0.001,0.104-0.089,0.137-0.106,0.228c0.091-0.013,0.447-0.081,0.522,0.022c-0.931,0.18-1.853-0.062-2.798,0.002
			c-3.188,0.217-6.414,0.009-9.575,0.486c-1.774,0.267-3.005,0.164-4.744-0.005c-4.534-0.44-8.935,1.073-13.19-0.281
			c-1.672-0.533-2.99-1.565-4.612-2.048c-1.347-0.401-2.735-0.338-4.099-0.609c-3.578-0.713-7.521,0.418-10.954,1.475
			c-3.158,0.971-324.928,0.343-327.957-0.385"/>
	</g>
</g>
</svg>
