<?xml version="1.0" encoding="utf-8"?>
<!-- Generator: Adobe Illustrator 15.1.0, SVG Export Plug-In . SVG Version: 6.00 Build 0)  -->
<!DOCTYPE svg PUBLIC "-//W3C//DTD SVG 1.1 Tiny//EN" "http://www.w3.org/Graphics/SVG/1.1/DTD/svg11-tiny.dtd">
<svg version="1.1" baseProfile="tiny" id="Layer_3" xmlns="http://www.w3.org/2000/svg" xmlns:xlink="http://www.w3.org/1999/xlink"
	 x="0px" y="0px" width="880px" height="612px" viewBox="0 0 880 612" xml:space="preserve">
<path fill="none" d="M45.737,317.842c-21.09,4.783-9.152,30.087-6.316,44.266c4.31,21.546,4.21,43.982,4.21,66.491
	c0,41.629-23.831,91.69,2.329,130.062c1.723,2.527-0.049,1.019-0.94,2.064c1.902-3.386,2.05-1.873,3.564-2.969
	c-5.126,6.118,3.055,14.113,8.369,17.065c-0.238-0.118-2.156-0.999-2.188-1.01c10.832,4.28,21.995,10.689,33.054,12.476
	c11.865,1.916,26.979,0.587,38.976,0.03c10.768-0.5,18.904-1.347,29.721,2.312c8.672,2.933,14.74,5.076,23.959,5.003
	c15.814-0.126,32.585-3.552,47.996-4.562c0.708,0.164-0.412,0.275-0.999,0.73c18.407-11.916,62-9.487,83.86-4.79
	c16.07,3.452,34.266,6.074,49.376,4.62c14.5-1.396,28.266-4.072,42.975-3.372c13.409,0.639,27.237,2.633,40.586,2.126
	c23.202-0.879,45.947-5.279,69.89-5.279c19.854,0,39.518-1.583,57.949-3.158c5.696-0.486,11.539,0.126,17.025,1.169
	c-0.006-0.869-0.457-1.516-1.353-1.94c-0.038-0.402,0.992,4.014,1.029,3.866c28.45,0.741,57.088,0.063,85.583,0.063
	c24.283,0,43.752-4.211,67.079-4.211c19.938,0,38.743-1.433,57.949-3.103c6.219-0.541,20.916,1.464,26.367-1.291
	c5.556-2.808,10.773-17.428,12.61-22.969c4.686-14.136,0.954-30.244-0.781-44.38c-1.826,0.646-5.128-0.336-6.943,0.326
	c2.5-18.32-0.627-39.41,0.326-58.058c0.476-9.302-0.021-17.714,2.132-26.285c2.111-8.41,5.161-16.476,5.236-25.294
	c0.153-18.021-5.216-34.906-6.315-52.631c-0.656-10.589-2.053-15.585,4.999-21.317c4.037-3.282,15.4-8.776,21.078-4.785
	c11.06,7.772,3.428,34.879-12.681,26.391c-19.783-10.424,13.583-25.59,8.417-9.891c-0.834,0.021,0.436-0.802,0.163-0.163
	c-1.456,0.313-3.614,0.677-5.135,0.292"/>
</svg>
