<svg width="100%" height="100%" viewBox="0 0 1440 900" fill="rgba(255,255,255,0)" stroke="black" stroke-width="1"><path stroke="black" d="M667.231,472.02c1.282-0.536,5.007-1.366,8.519-1.626   c3.221-0.745,6.693,1.284,9.471-0.702c1.248-0.893,2.966-4.232,4.816-2.516c1.081,1.001-0.059,2.905,0.846,4.025   c-0.165-1.287-0.733-4.066-2.562-3.682c1.218,1.088,2.026,2.774,3.03,3.971c0.09-1.305,0.047-2.65,0.047-3.971   c0,1.221,0.036,2.486-0.054,3.68c-0.418-1.107-0.769-2.406-0.891-3.607c-0.107,1.342-0.501,2.765-1.187,3.903   c-0.794-0.551-0.788-1.679-1.427-2.4c-0.938,0.657-0.887,1.69-0.955,2.842c0.114-1.828,0.23-3.614,0.237-5.468   c0.346,0.812,0.066,2.827,0.487,4.02c-0.191-1.023-0.395-2.159-0.215-3.219c0.492,0.035,1.366,0.245,1.83,0.475   c-0.135,2.945,1.151,5.583,0.685,8.507c-0.551,3.455-3.698,5.048-3.227,8.769c1.424,0.229,2.434-0.397,3.767-0.735   c1.371-0.346,2.666-0.169,4.035-0.452c1.09-0.225,1.9-1.178,3.111-1.188c0.776-0.005,1.36,0.688,2.123,0.76   c1.587,0.149,2.976-0.334,4.522-0.551c2.354-0.332,3.665,0.286,5.881,0.716c2.17,0.423,3.456-0.413,5.518-1.133   c5.252-1.834,6.244,2.365,10.243,4.265c2.234-2.918-3.873-4.851-5.965-4.739c-3.288,0.174-9.896,1.522-12.76-0.186   c1.742,0.165,3.095-0.744,4.917-0.296c2.137,0.525,5.238,1.459,7.033,2.649c-2.879-0.868-6.263-1.381-9.344-1.688   c-2.029-0.203-4-0.235-6.013-0.053c-2.401,0.217-4.959,1.201-7.334,0.557c0.695,3.405,4.098-0.016,5.896,0.249   c-0.876,0.627-2.943,0.774-4.253,1.094c-2.297,0.563-5.159,2.643-7.542,2.145c1.573-0.704,6.733-1.285,7.267-2.524   c-2.984-0.154-6.026,0.688-9.175,0.435c0.455,0.185,1.347,0.5,1.364,0.509c0.22-1.997-2.555-2.825-3.835-1.697   c1.108,1.162,3.654-0.41,5.224-0.207c0.221,3.621-6.388,3.757-4.53-0.493c0.421,3.096,1.928,2.74,4.568,1.656   c2.66-1.091,4.23-1.835,7.124-2.087c4.455-0.386,5.883,0.045,6.962,4.511c1.106,4.573,0.564,8.92-0.545,13.419   c0.166-4.264-0.947-8.458-0.946-12.691c0.688,5.474-0.766,14.25,3.084,18.891c2.959,3.566,8.022,2.935,11.65,1.236   c2.142-1.003,4.144-2.263,4.939-4.458c0.984-2.72,1.814-6.698,1.722-9.611c-0.063-2.062,0.317-6.166-1.241-7.723   c-3.125-3.12-7.886,1.511-11.292-0.56c2.08,0.418,4.605-1.321,6.651-1.824c1.284-0.315,3.18-0.445,4.167-1.228   c0.148,3.443-0.258,14.807,2.388,16.599c0.278-5.276,0.611-10.796,0.51-16.076c-0.023,7.645-2.858,15.255-2.851,22.917   c0.021-3.551,0.408-7.862,2.091-11.061c0.597,5.765-3.21,11.756-7.251,15.576c0.969-1.256,4.887-2.067,3.893,0.496   c-0.611,1.573-6.027,2.128-7.256,1.413c1.487-1.501,4.223-2.764,6.185-1.842c-1.308,0.394-3.387,0.794-4.956,0.954   c1.197-0.53,2.459-1.313,3.685-1.92c-1.655,0.07-4.158,0.506-5.164,1.891c2.055-1.418,4.466-4.138,7.301-3.115   c-2.77,0.172-7.702,4.243-9.989,2.423c1.241-0.441,3.238-0.675,4.733-0.967c-1.824,2.488-5.08,3.205-7.701,1.496   c1.461-0.314,2.959,0.628,4.142,1.399c-2.212-0.463-3.968-3.491-4.688-5.442c1.783,1.3,3.515,2.689,4.924,4.408   c-1.676-1.786-3.988-2.589-5.306-4.729c0.939,1.685,2.132,3.134,3.401,4.592c-1.698-0.869-3.216-2.424-4.898-3.097   c0.631,1.252,2.261,1.856,3.478,2.35c-1.817,0.11-3.613-1.096-4.6-2.535c1.174,0.652,2.918,1.486,2.729,2.974   c-1.462-0.354-1.755-2.682-1.151-3.813c0.286,0.528,0.573,1.456,0.671,2.18c-0.837-3.018-1.582-6.651-2.594-9.844   c0.063,1.115,0.427,2.263,0.924,3.188c0.187-2.618,0.216-5.448-0.249-8.018c-0.449-2.481-1.199-4.49,0.256-6.682   c-0.5,1.424-0.438,4.337,0.053,5.971c-0.051-2.217,0.393-5.723,0.224-8.336c-0.044,4.238-1.98,8.246-0.701,12.503   c-0.759-5.73-2.27-13.867,5.693-14.208c4.453-0.19,9.516-1.704,13.997-1.391c-0.383,5.06,0.038,10.641,0.023,15.851   c0.004-3.021,0.533-5.902,0.73-8.881c-0.936,4.018-0.18,8.94-0.308,13.087c-0.646-2.652,0.238-5.515-0.472-8.192   c-2.646,2.668-2.083,7.48-2.09,10.984c-0.012-3.293-0.2-7.755-0.244-11.457c0.307,3.391,1.66,6.859,1.622,10.208   c-1.782-4.422,1.343-10.812-0.255-15.615c-1.176,3.924,0.391,8.883,0.303,12.983c0.015-4.992,1.269-10.571,0.664-15.462   c-1.134,2.332-1.046,6.301-0.248,8.786c1.323-3.146,1.066-7.42,1.746-10.818c-0.738,2.242,0.162,4.621-0.061,6.922   c-1.955-2.25-1.832-6.903-1.867-9.799c0.406,1.166,0.749,2.588,0.259,3.717c-0.563-0.085-2.465-1.471-2.618-1.438   c-1.332,0.295-0.611,2.785-2.111,3.102c-0.369-1.097-0.299-2.303-0.993-3.092c-0.899,0.774-0.865,2.069-1.614,2.865   c-0.081-1.238-0.02-2.534-0.09-3.772c-1.064,0.766-1.003,2.32-1.449,3.548c-0.359-1.057-0.483-2.706-0.459-3.969   c-0.681,0.829-0.993,1.957-1.199,2.972c-0.344-0.702-0.609-1.631-0.838-2.319c-0.178,1.011-0.469,2.047-0.712,3.031   c-0.013-0.837-0.094-1.737-0.345-2.562c-0.426,0.756-0.566,1.854-0.909,2.781c-0.147-1.145-0.262-2.294-0.522-3.428   c-0.354,1.008-0.505,2.158-0.891,3.196c-0.317-1.059-0.472-2.171-0.767-3.244c-0.647,0.672-0.785,1.794-0.957,2.775   c-0.067-1.563-1.224-1.917-2.038-0.927c-0.012-2.372,3.492-4.68,4.242-7.099c0.863-2.781,1.258-5.938,2.042-8.797   c-0.726-0.341-1.437-0.63-2.215-0.707c1.522,0.105,3.275,0.599,3.742,2.303c0.076-0.85-0.001-1.687-0.309-2.469   c-0.53,1.157-0.3,2.45-0.653,3.655c-0.271-0.745-0.541-1.683-0.897-2.3c-0.094,1.103,0.066,2.277-0.286,3.269   c-0.878-1.202-1.675-2.653-1.923-4.159c0.479,1.186,0.915,2.453,1.216,3.678c-0.211-1.151-0.563-2.363-0.676-3.488   c0.328,0.811,0.195,2.559,0.178,3.369c0.304-1.192,0.49-2.41,0.783-3.606c0.382,2.028,1.951,4.647,4.469,2.842   c2.014-1.442,0.847-3.905,0.939-5.946c0.089-1.977,0.992-4.042,1.479-5.94c0.428-1.667,1.257-4.611,2.233-5.894   c-0.975-0.834-2.532-1.009-3.713-0.475c-0.82,0.37-3.607,5.26-4.716,3.059c-1.061-2.104,1.844-1.568,2.576-1.92   c1.394-0.669,2.075-2.086,3.355-3.235c-0.896,1.129-9.159,4.272-5.512,5.992c-0.409-0.332-0.799-0.648-1.192-1.015   c0.232,0.472,0.378,0.559,0.748,0.909c0.684-1.589,3.231-3.573,5.269-3.546c3.278,0.042,2.48,4.323,3.457,6.358   c0.003-1.725,0.274-4.682-1.039-5.971c0.293,1.544,0.737,3.497-0.082,4.938c-0.405-0.473-0.725-0.591-0.921-1.322   c0.246,0.502,0.832,1.247,1.146,1.857c1.346-1.05,0.983-4.241-0.398-5.189c1.139,1.458,1.096,3.663,1.396,5.427   c1.671-1.612-0.901-1.636-1.24-2.144c-1.025-1.535-1.214-4.728,0.312-6.075c0.409,0.994-0.18,1.916-1.007,2.516   c-1.967-1.2-4.25-3.385-6.107-4.995c1.475,0.764,3.103,2.354,3.937,3.766c-1.763-1.459-2.971-4.673-5.612-4.685   c1.134,0.122,2.098,0.981,2.566,2.053c-0.106-0.18-0.197-0.425-0.309-0.593c-0.559,0.243-1.427,0.245-2.057,0.402   c-0.258-1.003-0.966-1.936-0.949-3.018c1.138-0.551,3.854-0.29,4.9,0.488c1.692,1.259,1.089,3.282,3.57,3.955   c0.577-1.393-0.873-3.042-0.628-4.679c0.6,0.154,1.507,0.172,2.083,0.396c-0.496-0.4-1.027-1.134-1.571-1.585   c0.486,0.182,1.251,0.168,1.798,0.415c-0.142-0.76-0.737-1.324-1.555-1.587c0.69-0.195,1.201-0.375,1.989-0.291   c-0.515-0.176-0.868-0.384-1.387-0.616c3.371,1.218-0.329,4.607,0.444,6.795c0.584-1.679,1.231-3.624,0.979-5.433   c-1.439,0.384-1.774,5.137-3.018,6.556c0.02-2.011,1.793-3.737,1.581-5.803c-1.092,1.56-1.971,3.826-2.298,5.596   c1.434,0.274,3.567,0.045,4.014,1.728c1.869-2.733,7.284-1.926,10.632-1.038c2.201,0.584,3.977,1.738,5.998,2.619   c2.357,1.026,3.553,2.959,5.877,4.152c4.072,2.09,8.754,1.63,13.082,2.365c2.821,0.48,5.351,2.234,8.069,2.805   c5.549,1.165,12.01-0.531,17.655-0.714c5.609-0.182,11.271,0.531,16.867,0.244c5.621-0.288,11.037-0.997,16.396-2.857   c2.565-0.891,5.135-2.116,7.836-2.382c2.263-0.221,4.226,0.481,6.42,0.782c5.797,0.797,11.647-0.522,17.404-0.782   c5.278-0.238,10.377,0.006,15.633-0.661c4.768-0.605,9.148,0.643,13.836,0.44c4.891-0.21,9.207-1.611,13.969-2.388   c4.575-0.747,8.714-0.887,13.314-0.725c2.379,0.084,4.849,1.096,7.182,0.8c2.498-0.318,3.995-1.199,6.606-0.729   c4.089,0.735,7.946,1.512,12.11,1.608c7.233,0.168,14.174-1.103,21.328,0.477c3.37,0.744,481.594,0.68,484.87,1.599   c2.031,0.569,3.836,2.26,5.71,1.96l-0.356-0.419c-2.909-1.209-487.649-3.052-490.907-3.403c-8.521-0.919-16.823,1.362-25.281,0   c-5.33-0.858-8.694-2.475-14.209-1.117c-5.952,1.467-10.747,2.801-16.894,3.063c-6.356,0.27-12.771,0.922-19.132,0.425   c-6.036-0.471-11.284,0.445-17.077-1.106c-3.317-0.888-7.536-1.439-10.997-1.789c-3.535-0.359-7.309,0.108-10.713,0.963   c-5.699,1.433-9.984,1.858-15.816,1.777c-3.252-0.044-6.287,1.304-9.644,1.136c-3.292-0.164-6.028,0.045-9.302,0.521   c-5.71,0.831-10.99,3.053-16.665,4.301c-4.617,1.015-8.974,2.6-13.633,3.573c-5.899,1.233-11.526-0.554-16.951-2.747   c-3.534-1.43-6.296-2.724-9.279-4.705c-1.093-0.724-2.405-0.998-3.427-1.834c-1.48-1.214-2.563-2.947-4.06-4.2   c-0.679-0.568-1.282-1.105-2.063-1.543c-0.893-0.5-1.932-0.512-2.901-0.78c-1.034-0.284-2.019-0.632-3.039-0.953   c-1.015-0.317-1.999-0.696-3.076-0.546c-0.739,0.103-1.289,0.33-2.034,0.12c-0.965-0.273-1.948-0.408-2.953-0.306   c-0.451,0.046-0.867,0.193-1.307,0.26c-0.33,0.05-0.677,0.163-1.011,0.214c-0.715,0.106-0.864,0.108-1.295,0.801   c-0.45,0.722-1.074,1.51-1.782,1.981c-0.476,0.316-0.849,0.57-1.219,1.027c-0.465,0.574-1.032,1.356-1.689,1.691   c0.365-0.73,0.917-1.376,1.427-2.005c0.262-0.324,0.788-0.855,0.751-1.305c-0.405,0.16-0.828,0.548-1.209,0.789   c-0.455,0.288-0.893,0.604-1.346,0.896c-0.688,0.443-2.276,2.154-2.82,0.885c-0.27-0.627,0.29-0.995,0.836-1.252   c0.573-0.269,0.955-0.418,1.432-0.854c0.615-0.563,1.324-1.012,2.056-1.436c0.618-0.358,1.724-1.047,2.277-0.423   c0.129,0.146,0.138,0.541,0.19,0.721c0.091,0.308,0.225,0.473,0.379,0.747c0.269,0.482-0.125,0.639-0.519,0.973   c-0.826,0.699-1.452,1.748-2.399,2.286c-0.458,0.26-0.859,0.515-1.213,0.915c-0.431,0.487-0.654,1.068-1.271,1.357   c-0.17-0.622-0.312-1.079-0.721-1.609c-0.495-0.64-1.039-1.272-1.596-1.842c-0.026,0.089-0.044,0.245-0.044,0.328   c-0.023,0.011,0.12-0.017,0.087-0.024c0.191,0.045,0.549-0.349,0.752-0.382c0.278-0.048,0.416,0.167,0.662,0.205   c0.449,0.067,0.616-0.295,0.938-0.503c0.349-0.225,0.544-0.234,0.843-0.555c0.498-0.534,1.131-0.754,1.825-0.794   c0.616-0.035,1.349,0.689,1.92,0.133c0.446-0.435,0.455-1.616,0.431-2.176c-0.017-0.383,0.113-1.041-0.137-1.371   c-0.159-0.21-0.542-0.252-0.758-0.397c-0.388-0.261-0.756-0.647-1.098-0.969c-0.475-0.446-0.957-0.682-1.558-0.929   c-0.788-0.323-1.454-0.534-2.302-0.636c-0.525-0.063-0.877,0.156-1.354,0.316c0.225,1.043,1.401,1.688,2.314,2.09   c0.972,0.429,1.759,1.128,2.699,1.58c0.556,0.267,1.541,0.792,2.108,0.411c1.035-0.696,0.25-2.073-0.264-2.858   c-0.309-0.474-0.847-0.579-1.178-0.979c-0.376-0.454-0.569-0.898-1.055-1.298c-0.459-0.377-0.814-0.87-1.254-1.275   c-0.33-0.304-0.792-0.376-1.096-0.679c-0.223,0.367-0.496,0.745-0.719,1.145c-0.425,0.763-1.151,1.397-1.605,2.137   c0.633-0.645,1.112-1.464,1.616-2.221c0.201-0.305,0.449-0.955,0.888-0.688c0.229,0.14,0.29,0.499,0.463,0.717   c0.459,0.577,1.09,1.249,1.718,1.624c0.833,0.498,1.983,0.759,2.564,1.589c0.275,0.393,0.104,0.933,0.513,1.218   c0.161,0.112,0.56,0.215,0.762,0.264c0.469,0.111,0.54,0.061,0.801,0.59c0.149,0.303,0.249,0.636,0.428,0.919   c0.157-0.057,0.123-0.129,0.212-0.252c0.248-0.333,0.419-0.915,0.625-1.29c0.166-0.304,0.289-0.646,0.391-0.981   c0.149-0.505,0.349-1.006,0.461-1.526c0.166-0.776,0.422-1.534,0.699-2.271c0.17-0.456,0.471-0.857,0.643-1.305   c0.371-0.967-0.465-0.914-1.151-1.169c-0.329-0.122-0.666-0.294-1.011-0.383c-0.258-0.066-0.459-0.036-0.719-0.145   c-0.201-0.085-0.41-0.248-0.614-0.279c-0.04,0.326-0.293,0.639-0.389,0.962c-0.152,0.51-0.295,1.038-0.41,1.563   c-0.292,1.336-1.038,2.914-0.888,4.297c0.161-0.153,0.124-0.396,0.119-0.616c-0.066,0.348-0.166,0.729-0.119,1.084   c0.22-0.366,0.178-0.967,0.456-1.316c0.257,0.332-0.219,1.288,0.17,1.44c0.136-0.263,0.245-0.619,0.413-0.837   c-0.066,0.241-0.276,0.426-0.344,0.658c-0.054,0.187,0.01,0.376-0.027,0.561c-0.083,0.414-0.494,0.594-0.62,1.008   c0.161,0.029,0.322,0.114,0.441,0.212c0.007-0.041,0.01-0.079,0.017-0.12c0.229,0.271,0.437,0.719,0.337,1.083   c-0.05-0.491,0.179-0.917,0.197-1.377c-0.007,0.002-0.106,0.005-0.119,0.005c0.001,0.003,0.062,0.064,0.066,0.032   c-0.147,0.113-0.346,0.144-0.417-0.038c-0.063,0.203-0.022,0.517-0.041,0.758c-0.128-0.475-0.081-0.637,0.306-0.845   c0.115,0.269-0.084,0.808-0.4,0.873c0.062,0.079,0.052,0.069,0.147,0.093c0.166-0.39,0.261-0.832,0.293-1.255   c0.019-0.248-0.037-0.464,0.123-0.678c0.173,0.073,0.317,0.216,0.507,0.257c-0.351,0.539-0.602,1.01,0.094,1.247   c0.375,0.128,0.83,0.173,1.176,0.396c0.271,0.176,0.394,0.491,0.671,0.663c0.833,0.516,5.18,0.493,4.842-1.121   c-0.547,0.553-0.941,1.176-1.706,1.503c-0.793,0.339-2.103-0.42-1.792-1.39c0.169-0.521,0.961-0.515,1.398-0.64   c0.525-0.148,1.033-0.345,1.552-0.501c0.394-0.118,0.893-0.185,1.173-0.506c-0.362,0.008-0.76,0.025-1.113-0.04   c-0.342-0.062-0.55-0.195-0.896-0.169c-0.408,0.031-0.837,0.101-1.26,0.137c-0.875,0.076-1.838,0.846-2.701,0.699   c0.235-0.207,0.613-0.328,0.926-0.37c0.479-0.063,1.098-0.168,1.592-0.118c-0.451,0.172-1.175,0.355-1.66,0.33   c0.361-0.119,1.159,0.018,1.586,0.07c0.63,0.08,1.134-0.041,1.762-0.072c0.454-0.022,0.912,0.027,1.348-0.082   c0.418-0.104,0.813-0.24,1.229-0.294c0.027,0.542,0.049,1.095,0.048,1.639c-0.003,0.9-0.161,1.853-0.126,2.736   c0.001-0.849,0.126-1.675,0.126-2.524c0-0.539,0.175-1.398-0.052-1.892c-0.227,0.528-0.337,1-0.285,1.651   c0.059,0.751,0.319,1.591,0.201,2.347c-0.279-0.312-1.822-0.394-2.182-0.302c0.529,0.137,1.414,0.057,1.903-0.186   c-0.234,0.271-1.144,0.007-1.524,0.026c-0.528,0.026-1.063,0.042-1.603,0.042c-0.58,0-1.195,0.059-1.772,0   c-0.502-0.051-1.041-0.368-1.543-0.34c0.231,0.47,0.285,1.058,0.49,1.554c0.35,0.843,0.813,1.719,1.301,2.488   c-0.115-0.788-0.434-1.426-0.838-2.099c-0.393-0.654-0.45-1.423-1.051-1.97c0.281,0.495,0.768,1.022,0.978,1.547   c0.329,0.82,0.585,1.844,0.761,2.708c0.098,0.486,0.166,0.958,0.365,1.416c0.156,0.359,0.506,0.628,0.339,0.852   c-0.413,0.551-1.612,0.724-2.179,1.057c0.521-0.227,1.297-0.641,1.625-1.093c-0.257,0.166-0.494,0.19-0.753,0.3   c-0.272,0.114-0.435,0.298-0.677,0.464c-0.209,0.143-1.37,0.82-1.634,0.698c-0.23-0.104-0.484-1.35-0.546-1.624   c-0.201-0.883-0.359-1.792-0.644-2.655c-0.018,0.282,0.276,0.668,0.38,0.944c0.164,0.438,0.233,0.927,0.425,1.35   c-0.366-0.795-0.489-1.721-0.773-2.551c-0.261-0.764-0.693-2.085-0.408-2.884c-0.022,0.176,0.006,0.642,0.113,0.883   c0.142-0.251,0.086-0.572,0.083-0.824c0.194,0.528,0.129,1.242,0.438,1.714c-0.019-0.81-0.089-1.634-0.039-2.44   c0.512,0.649,0.667,1.989,0.743,2.796c0.173,1.839-1.108,3.823-1.472,5.574c-0.158,0.76-0.129,1.284-0.085,2.008   c0.048,0.785-0.174,1.604-0.207,2.391c-0.03,0.735-0.059,1.495-0.153,2.222c-0.079,0.61,0.058,1.393-0.19,1.964   c-0.234,0.538-0.922,0.974-1.295,1.428c-0.47,0.571-1.047,1.406-1.77,1.688c-1.005,0.391-0.154-0.906-0.099-1.311   c0.085-0.617-0.124-1.164-0.215-1.755c-0.048-0.315,0.026-0.636-0.183-0.898c0.033-0.011,0.16-0.034,0.188-0.036   c-0.016,0.24-0.085,0.482-0.157,0.718c-0.245,0.801-0.708,1.583-0.342,2.409c0.126,0.288,0.55,0.922,0.963,0.629   c0.94-0.67-1.755-2.522-1.932-2.917c-0.211-0.476,0.016-0.72,0.333-1.017c0.257-0.241,0.732-0.819,1.135-0.797   c0.682,0.039,0.202,0.94-0.003,1.267c-0.557,0.888-1.561,1.455-2.354,2.101c-0.353,0.286-1.979,1.812-1.637,0.392   c0.222-0.926,0.712-1.612,1.514-2.115c0.388-0.244,0.817-0.405,1.216-0.63c0.264-0.148,0.603-0.474,0.898-0.542   c0.423-0.099,0.235,0.049,0.542,0.282c0.126,0.098,0.314,0.072,0.464,0.226c0.499,0.509,0.722,1.802,0.846,2.475   c0.083,0.444,0.145,0.898,0.118,1.349c-0.483-0.079-0.993,0.119-1.502,0.133c-0.798,0.021-1.593-0.03-2.371,0.166   c-0.459,0.116-1.056,0.329-1.348-0.156c-0.196-0.326-0.065-0.735-0.012-1.155c0.084-0.649-0.001-1.282-0.042-1.935   c-0.038-0.589-0.192-1.458,0.019-2.025c0.196-0.529,0.884-0.372,1.373-0.376c0.595-0.004,1.233,0.126,1.834,0.18   c0.591,0.052,1.448,0.223,1.967-0.094c-0.069,0.301,0.014,0.635-0.048,0.959c-0.088,0.459-0.104,0.838-0.074,1.316   c0.027,0.45,0.047,0.901,0.095,1.352c0.03,0.29,0.183,0.775,0.042,1.056c-0.083,0.165-0.24,0.313-0.475,0.325   c-0.751,0.039-1.442-0.121-2.237-0.002c-0.904,0.134-1.812,0.234-2.69,0.385c-0.249-1.817,0.417-3.705,0.331-5.573   c-0.034,0.743,0.186,1.821,0.338,2.615c-0.01-0.289-0.131-0.577-0.18-0.866c-0.078-0.466,0.008-0.975-0.119-1.423   c0.041,0.748,0.156,1.516,0.086,2.286c-0.055,0.617-0.298,1.315-0.16,1.937c0.11,0.493,0.172,0.642,0.106,1.189   c-0.073,0.601,0.19,0.657,0.438,1.111c0.256,0.468,0.111,1.151-0.01,1.63c-0.49,1.926-1.486,3.778-1.671,5.746   c-0.122,1.276,0.636,2.097,1.635,2.79c0.839,0.582,1.803,0.774,2.813,0.867c1.373,0.127,2.8,0.171,4.178,0.178   c1.98,0.013,4.048-0.247,5.942-0.837c-0.479,0.135-1.065-0.148-1.585-0.134c-0.99,0.025-1.957,0.287-2.948,0.297   c-0.919,0.009-1.833-0.122-2.751-0.129c-0.986-0.007-1.972-0.06-2.952-0.177c-0.756-0.091-1.483-0.332-2.234-0.425   c-0.814-0.101-1.686-0.433-2.484-0.158c-0.809,0.278-2.042,1.002-2.521,1.729c-0.255,0.388-0.314,0.899-0.517,1.317   c-0.303,0.619-0.763,1.26-0.931,1.93c-0.173,0.689-0.288,1.453-0.421,2.154c-0.414,2.189-0.493,4.367-0.283,6.578   c0.244,2.575,0.599,4.967,2.528,6.842c0.881,0.854,1.84,1.734,2.848,2.436c0.949,0.661,1.971,1.425,3.142,1.598   c1.167,0.172,2.374-0.204,3.522-0.379c0.741-0.111,1.44-0.218,2.12-0.555c0.688-0.343,1.282-0.79,1.863-1.287   c0.532-0.457,1.211-0.919,1.502-1.581c0.377-0.854,0.365-1.83,0.639-2.708c0.215-0.688,0.377-1.383,0.498-2.091   c0.102-0.598-0.06-1.137-0.039-1.726c0.041-1.05,0.384-2.205,0.585-3.236c0.281-1.451,0.227-2.855,0.295-4.324   c0.085-1.831,0.259-3.649,0.224-5.483c-0.016-0.844-0.387-1.993-0.121-2.806c0.541,0.523,0.785,2.156-0.123,2.468   c-0.428,0.146-0.938-0.169-1.314-0.323c-0.686-0.281-1.285-0.395-2.031-0.301c-0.567,0.072-1.461,0.189-1.817,0.711   c-0.252,0.369-0.213,0.516,0.214,0.604c0.865,0.18,2.002-0.258,2.872-0.343c0.508-0.051,1.032-0.124,1.542-0.129   c-1.954-2.337-5.527-1.997-8.289-2.449c-1.999-0.327-3.921-0.646-5.955-0.628c-1.555,0.015-3.084,0.334-4.628,0.476   c0.22,0.135,0.588,0.126,0.872,0.158c0.778,0.089,1.554,0.203,2.325,0.338c2.05,0.356,4.063,0.944,6.126,1.218   c0.957,0.128,1.916,0.23,2.871,0.376c0.56,0.085,1.235,0.121,1.729,0.433c0.841,0.526-0.275,0.399-0.676,0.37   c-1.774-0.129-3.559-0.369-5.318-0.622c-2.762-0.398-5.534-0.473-8.31-0.706c-3.097-0.26-6.124-0.495-9.236-0.385   c-1.485,0.054-3.127,0.174-4.558,0.583c0.442,0.187,1.06,0.078,1.527,0.082c0.95,0.008,1.909,0.027,2.858,0.084   c2.27,0.135,4.506,0.519,6.753,0.856c2.075,0.313,4.157,0.58,6.249,0.754c0.911,0.074,1.981-0.065,2.861,0.214   c-0.234,0.346-1.394,0.331-1.775,0.382c-1.368,0.181-2.743,0.279-4.121,0.318c-1.301,0.036-2.601-0.06-3.899-0.025   c-0.29,0.008-1.17-0.09-1.299,0.236c0.663,0.199,1.571,0.042,2.245-0.029c1.04-0.111,2.072-0.295,3.116-0.387   c1.527-0.135,2.98,0.38,4.508,0.382c1.977,0.002,3.982-0.199,5.945-0.42c1.032-0.114,2.073-0.253,3.087-0.476   c0.41-0.09,0.864-0.303,1.283-0.234c-1.121,0.375-2.499,0.318-3.664,0.498c-1.41,0.216-2.775,0.522-4.206,0.379   c-1.608-0.162-3.314-0.178-4.923-0.001c-1.026,0.11-2.386,0.575-3.328-0.074c1.347-0.101,2.728-0.088,4.083-0.167   c2.517-0.146,4.9-0.352,7.416-0.001c2.242,0.312,4.415,0.288,6.67,0.286c0.699-0.001,1.335,0.065,2.02,0.181   c0.239,0.04,0.496,0.003,0.669,0.2c-0.41,0.688-1.334,0.846-2.069,0.938c-1.875,0.234-3.871-0.401-5.686-0.771   c-1.593-0.325-3.208-0.313-4.813-0.555c-1.636-0.246-3.226-0.659-4.879-0.839c-2.324-0.251-4.7-0.177-6.911-1.056   c1.441,0.031,2.885,0.004,4.326,0.004c2.166,0,4.266,0.268,6.413,0.557c2.343,0.314,4.629,0.688,6.997,0.782   c1.296,0.052,2.787-0.028,4.051,0.307c-3.873-0.056-7.783-0.489-11.625-0.974c-2.319-0.292-4.647-0.216-6.963-0.502   c-1.505-0.185-3.024-0.531-4.549-0.51c1.246,0.306,2.806-0.158,4.072-0.199c2.304-0.075,4.611-0.232,6.916-0.129   c3.817,0.172,7.562,0.954,11.388,0.404c-0.688-0.208-1.637,0.094-2.323,0.211c-1.044,0.181-2.151,0.349-3.209,0.224   c-1.203-0.142-2.253-0.574-3.398-0.934c-1.473-0.463-3.071-0.565-4.602-0.694c-1.959-0.166-3.913-0.174-5.859-0.482   c-1.868-0.297-3.722-0.492-5.615-0.509c-1.809-0.016-3.63,0.196-5.435,0.035c-0.582-0.052-1.338-0.089-1.86-0.362   c1.694-0.102,3.423-0.163,5.114-0.052c1.833,0.121,3.645,0.112,5.464-0.166c1.318-0.202,2.902-0.127,4.226,0.071   c1.517,0.226,3.179,0.205,4.711,0.147c2.573-0.097,5.116,0.183,7.677,0.201c1.106,0.009,2.199,0.093,3.302,0.129   c1.172,0.039,2.267,0.019,3.378,0.474c0.539,0.22,1.199,0.191,1.691,0.492c0.299,0.181,0.591,0.506,0.824,0.756   c0.998,1.068,1.352,2.01,1.525,3.468c0.102,0.864,0.102,2.304,0.623,3.029c0.107-1.659-0.102-3.258-0.117-4.898   c-0.013-1.234,0.001-2.447,0-3.688c0.047,0.16,0.002,0.215-0.053,0.362c-0.172-0.082-0.314-0.297-0.191-0.498   c-0.004-0.006,0.074,0.049,0.069,0.049c-0.221,0.167-0.453,0.334-0.755,0.297c-0.347-0.043-0.692-0.295-1.061-0.344   c-0.414-0.054-0.804,0.081-1.207,0.121c0.486,0.026,0.995-0.044,1.488-0.043c-0.473,0.063-1.588-0.054-1.926,0.254   c0.436,0.209,1.305,0.124,1.812,0.126c-0.962,0.002-2.101,0.481-3.027,0.712c0.087,0.427,0.542,0.812,0.813,1.135   c0.383,0.456,0.768,0.908,1.264,1.243c0.899,0.608,1.26,1.365,0.868,2.425c-0.41,1.103-0.592,2.161-0.699,3.328   c-0.089,0.987-0.042,2.012-0.302,2.97c-0.554,2.055-0.973,4.128-1.472,6.194c-0.229,0.954-0.479,2.127-0.3,3.111   c-0.316-1.044,0.316-2.262,0.281-3.336c-0.021-0.705-0.119-1.396-0.115-2.107c0.001-0.609-0.219-1.207-0.201-1.802   c0.013-0.495,0.037-0.973,0.032-1.476c-0.015-1.409,0.313-2.806,0.295-4.217c-0.017-1.169,0.042-2.323,0.042-3.49   c0.002,0.814,0.281,1.865,0.213,2.573c-0.152-0.5-0.02-1.11,0.051-1.613c0.067-0.49,0.072-1.054,0.198-1.517   c0.578,0.27,0.509,1.524,0.509,2.025c0,0.945,0.013,2.426,0.497,3.236c0.017-0.278,0.036-0.608,0.175-0.845   c0.601,0.49,0.373,1.664,0.352,2.315c-0.045,1.423-0.13,2.857-0.349,4.266c-0.073,0.457-0.251,0.975-0.208,1.44   c1.066-3.229,2.453-6.275,2.814-9.698c-0.715,2.168-0.482,4.589-0.322,6.821c0.08,1.081,0.239,2.169,0.279,3.247   c0.041,1.137-0.254,2.325-0.337,3.462c-0.476-0.268,0.118-2.841,0.252-3.362c-0.005,0.625-0.091,1.307-0.158,1.936   c-0.038,0.351-0.026,1.019-0.341,1.256c-0.62-0.678-0.082-2.392-0.133-3.247c-0.404,0.684-0.348,1.815-0.365,2.586   c-0.016,0.66,0.065,1.316,0.123,1.973c-0.301-0.688-0.381-2.007-0.17-2.727c-0.057,0.916-0.191,1.925-0.387,2.819   c-0.105,0.48-0.389,1.906-1.005,1.976c-0.408-0.997,0.589-2.222,0.504-3.248c-0.765,0.369-0.975,1.863-1.184,2.589   c-0.229,0.796-0.42,1.604-0.672,2.394c0.294-1.059,0.705-2.068,1.144-3.076c0.238-0.549,0.855-1.402,0.718-2.036   c-0.782-0.167-1.712,2.034-1.94,2.543c-0.325,0.726-0.654,1.455-0.966,2.187c-0.11,0.259-0.187,0.605-0.384,0.806   c0.282-1.054,0.74-2.063,1.098-3.092c0.192-0.558,0.802-1.821,0.541-2.414c-0.693,0.494-1.039,1.818-1.437,2.549   c-0.189,0.35-0.495,1.202-0.925,1.303c0.04-0.661,0.633-1.416,0.889-2.021c0.229-0.54,0.436-1.091,0.668-1.631   c-0.084,0.804-0.668,1.698-1.037,2.416c0.467-0.551,0.863-1.29,1.412-1.75c-0.115,0.602-0.676,1.924-1.215,2.225   c0.129-0.638,0.859-1.392,1.268-1.893c-0.261,0.861-0.985,1.73-1.52,2.443c-0.418,0.558-0.907,1.353-1.513,1.732   c0.313-0.958,1.279-1.929,1.889-2.729c-0.292,0.277-0.636,0.655-0.998,0.823c0.351,0.347-0.901,0.956-1.198,1.018   c-0.041-0.173,0.109-0.313,0.289-0.327c-0.438,0.264-0.965,0.351-1.422,0.531c0.164,0.027,0.324,0.081,0.455,0.176   c-0.497,0.469-1.606,0.251-2.224,0.254c-0.533,0.003-2.437-0.07-2.699,0.634c-0.269,0.721,1.799,0.3,2.032,0.247   c0.668-0.152,2.105-0.408,2.485-1.053c-0.227-0.142-0.547-0.082-0.811-0.08c-0.703,0.003-1.372,0.059-2.066,0.158   c-0.426,0.062-2.07,0.058-2.307,0.465c0.388,0.364,1.341,0.534,1.845,0.728c0.561,0.217,1.398,0.669,2.014,0.581   c-0.415-0.183-0.942-0.17-1.385-0.282c-0.857-0.217-1.69-0.561-2.513-0.878c-1.195-0.46-2.212-1.086-3.333-1.66   c0.386,0.063,0.635,0.444,0.915,0.689c0.308,0.271,0.687,0.527,1.06,0.693c-0.511-0.554-1.157-0.991-1.639-1.59   c-0.484-0.602-0.839-1.56-1.003-2.32c0.411,0.547,0.46,1.28,0.962,1.806c0.307,0.32,0.713,0.438,1.003,0.771   c0.386,0.442,0.652,1.01,1.007,1.48c0.517,0.685,1.142,1.164,1.785,1.72c0.359,0.311,1.132,1.196,1.705,0.979   c0.736-0.278-0.21-1.601-0.738-1.566c0.39,0.775,2.402,0.737,3.107,0.808c1.004,0.1,2.129,0.449,3.13,0.201   c1.783-0.441,3.246-2.752,4.072-4.262c0.392-0.713,0.712-1.801,1.273-2.389c0.047,0.559-0.127,1.097-0.204,1.642   c-0.083,0.576-0.089,1.069-0.337,1.604c-0.278,0.605-0.645,1.15-1.054,1.676c-0.456,0.586-0.841,1.181-1.402,1.633   c-0.423,0.342-0.813,0.731-1.264,1.056c-0.368,0.266-1.461,1.376-1.926,1.153c-0.036-0.569,0.753-0.726,1.093-1.023   c0.369-0.323,0.609-0.771,1.01-1.09c0.398-0.315,0.779-0.633,1.127-1.005c-0.258,0.026-0.637,0.432-0.828,0.622   c-0.305,0.298-0.464,0.723-0.773,1.012c-0.227,0.211-0.494,0.273-0.747,0.436c-0.278,0.181-0.472,0.402-0.789,0.509   c-0.432,0.146-0.652,0.228-1.034,0.497c-0.27,0.191-1.477,1.109-1.673,0.632c0.159-0.224,0.222-0.024,0.384-0.083   c0.219-0.081,0.297-0.16,0.494-0.299c0.729-0.515,1.71-0.419,2.439-0.965c-0.343,0.137-0.674,0.377-1.045,0.489   c-0.333,0.102-0.689,0.18-1.011,0.338c-0.374,0.186-0.636,0.555-1.096,0.517c-0.414-0.034-0.675-0.185-1.127-0.045   c-0.568,0.176-1.112,0.54-1.655,0.721c-0.377,0.126-0.779,0.021-1.181,0c-0.846-0.044-1.84-0.08-2.647-0.338   c-0.818-0.261-1.372-0.905-2.128-1.211c-0.648-0.264-1.224-0.713-1.667-1.243c-0.294-0.351-0.606-0.521-0.894-0.847   c-0.273-0.307-0.554-0.609-0.835-0.917c-0.248-0.269-0.5-0.514-0.714-0.799c-0.422-0.559-0.537-1.164-0.763-1.837   c-0.028,0.275,0.124,0.584,0.372,0.727c0.432-0.314-0.461-0.724-0.044-0.876c0.457-0.167,1.202,1.473,1.556,1.688   c0.086-0.972-0.352-3.466-1.55-3.671c-0.06,0.585,0.757,3.839,1.78,3.079c0.551-0.408,0.054-2.536-0.064-3.032   c-0.098-0.413-0.229-0.825-0.375-1.225c-0.028-0.079-0.212-0.379-0.171-0.477c0.194-0.459,0.497,0.146,0.594,0.352   c0.266,0.561,0.418,1.198,0.843,1.67c0.314,0.35,1.378,0.929,1.43,1.362c-0.806-0.06-0.746-1.277-0.877-1.884   c-0.191-0.888-0.376-1.754-0.499-2.656c-0.105-0.776-0.102-1.645-0.418-2.374c0.367,0.183,0.854,0.266,0.524,0.885   c0.003-0.014,0.027-0.081,0.042-0.121c0.19,0.466,0.059,1.138,0.103,1.638c0.06,0.685,0.379,1.27,0.715,1.854   c0.438,0.767,0.833,1.479,1.187,2.285c0.159,0.36,0.327,0.697,0.574,0.998c-0.183-0.916-0.863-1.573-1.461-2.253   c-0.518-0.589-0.466-1.316-0.673-2.049c-0.776-2.736-0.268-5.641-0.265-8.453c-0.06,0.953-0.142,1.925-0.169,2.899   c-0.025,0.877-0.06,1.794,0.086,2.658c0.075,0.443,0.293,1.153,0.122,1.59c0.013-0.745-0.162-1.424-0.282-2.149   c-0.125-0.759-0.044-1.469-0.009-2.238c0.037-0.83,0.054-1.646,0.083-2.477c0.038-1.095,0.182-2.407-0.084-3.477   c-0.185,0.484-0.205,1.279-0.294,1.822c-0.11,0.659-0.042,1.319-0.042,1.987c-0.001,0.759-0.069,1.527-0.042,2.284   c-0.003-1.687-0.051-3.644,0.286-5.401c0.177-0.929,0.254-1.886,0.38-2.822c0.099-0.737,0.153-1.513,0.094-2.224   c-0.036,0.248-0.186,0.463-0.244,0.711c-0.092,0.393-0.051,0.82-0.051,1.221c-0.001,0.83,0.071,1.692-0.009,2.519   c-0.086,0.889-0.374,1.79-0.55,2.666c-0.084,0.418-0.721,1.851-0.239,2.054c0.132-0.447,0.049-1.08,0.041-1.556   c-0.007-0.357,0.094-1.505-0.212-1.728c-0.338,0.584-0.272,1.425-0.246,2.072c0.027,0.637,0.31,1.373,0.279,1.976   c-0.094-0.263-0.33-0.555-0.617-0.585c-0.106,0.367-0.077,0.768-0.129,1.146c-0.075,0.541-0.276,1.028-0.438,1.546   c-0.241,0.769-0.366,1.487-0.37,2.292c-0.002,0.373,0.053,0.781-0.049,1.144c-0.693-1.146,0.013-3.12-0.963-4.183   c-0.178,0.256-0.184,0.729-0.201,1.038c-0.042,0.739-0.06,1.496-0.054,2.235c0.012,1.735,0.269,3.441,0.918,5.055   c-0.497-0.828-0.969-1.763-1.254-2.688c-0.653-2.121-0.641-4.465-0.544-6.669c0.052-1.162-0.049-2.367,0.09-3.521   c0.101-0.84,0.099-1.688,0.172-2.543c0.091-1.048,0.2-2.094,0.2-3.15c-0.008,0.682-0.154,1.342-0.127,2.048   c0.034,0.894-0.006,1.802,0.042,2.698c0.05,0.962,0.143,1.893,0.296,2.844c0.146,0.916,0.451,1.81,0.54,2.736   c0.099,1.032-0.042,2.084,0.093,3.109c-0.007-0.992-0.107-1.947-0.215-2.917c-0.119-1.07,0.164-2.436,0.424-3.479   c0.14-0.561,0.152-1.138,0.302-1.691c0.151-0.553,0.525-0.996,0.618-1.547c0.07-0.418,0.06-0.848,0.083-1.27   c0.074-1.389,0.237-2.783,0.265-4.173c-0.789,1.501-1.095,3.193-1.528,4.832c-0.481-0.057-0.393-1.493-0.424-1.846   c-0.057-0.637-0.166-1.261-0.208-1.894c-0.27,0.398-0.744,1.836-0.337,2.182c0.074-0.808-0.575-1.534-0.575-2.317   c0.107,0.283,0.413,0.187,0.579,0.327c-0.826,0.433-2.138-0.011-3.033,0.008c-0.31,0.007-0.604,0.139-0.918,0.13   c-0.346-0.009-0.66-0.13-1.018-0.129c-0.478,0.002-2.227,0.533-2.443-0.119c1.12-0.334,2.694-0.381,3.829-0.081   c-0.154,0.131-0.344,0.016-0.542-0.01c-0.49-0.063-0.986-0.046-1.48-0.093c-0.661-0.064-2.117,0.112-2.484-0.573   c0.902-0.486,2.126-0.507,3.116-0.675c0.838-0.142,1.567-0.24,2.406-0.05c0.476,0.106,1.252,0.45,1.728,0.243   c-0.739-0.701-6.605-0.452-6.118-2.029c0.18-0.584,2.543-0.351,3.068-0.363c1.016-0.024,2.655-0.562,3.597-0.032   c-0.604,0.409-1.038,0.53-1.812,0.464c-1.381-0.119-2.838,0.014-4.216,0.154c-1.024,0.104-2.013,0.335-3.047,0.341   c-0.865,0.005-1.726-0.035-2.589-0.044c-0.69-0.008-1.395-0.117-2.079-0.077c0.204,0.491,1.015,0.154,1.381,0.107   c0.349-0.045,1.151-0.095,0.651,0.427c-0.252,0.263-0.782,0.249-1.109,0.3c-0.423,0.066-0.845,0.177-1.248,0.286   c0.453,0.499,1.387,0.79,1.744,0.028c0.49,0.15,1.168-0.846,1.484-1.112c0.453-0.383,0.901-0.683,1.441-0.92   c0.196-0.087,0.44-0.126,0.541-0.306c-0.296-0.187-0.689-0.134-1.021-0.217c-0.417-0.104-0.807-0.318-1.221-0.446   c-0.569-0.175-1.083-0.202-1.666-0.271c-0.715-0.087-1.367-0.083-2.087-0.075c-0.515,0.006-1.08,0.123-1.589,0.019   c0.359,0.195,0.507-0.129,0.833,0.029c0,0.05,0.013,0.107,0.014,0.156c0.407,0.193,1.077,0.007,1.514,0.191   c-0.086,0.652,0.684,1.185,0.841,1.837c0.122,0.511,0.061,1.144-0.129,1.604c-0.131,0.32-0.548,0.667-0.415,1.059   c0.25,0.733,1.395-0.343,1.722-0.55c0.304-0.192,0.927-0.331,0.923-0.796c-0.001-0.229-0.131-0.435-0.371-0.308   c0.01-0.007,0.085-0.063,0.095-0.066c0.012,0.108,0.062,0.231,0.046,0.322c0.13-0.287,0.239-0.032,0.438-0.128   c0.26-0.125,0.34-0.443,0.676-0.422c0.079-0.328,0.314-0.696,0.681-0.716c0.341-0.017,0.594,0.285,0.96,0.259   c-0.403-0.138-3.634-0.695-3.71-0.139c-0.044,0.332,0.347,0.307,0.606,0.339c0.506,0.063,0.78,0.241,1.267,0.557   c0.775,0.502,1.548,0.862,2.407,1.178c0.346,0.128,0.759,0.225,1.075,0.417c-0.748,0.1-1.462,0.681-2.235,0.607   c-0.842-0.081-1.64-0.012-2.488-0.01c-0.827,0.002-1.547-0.293-2.391-0.295c-0.919-0.002-1.743,0.383-2.692,0.331   c-0.073-0.573,0.098-1.213,0.036-1.808c-0.065-0.62-0.071-1.225-0.041-1.854c0.017-0.36,0.097-0.694,0.116-1.047   c0.01-0.198-0.116-0.543-0.043-0.693c0.107-0.221,0.434-0.265,0.603-0.453c0.18-0.199,0.3-0.517,0.426-0.751   c0.287-0.074,0.406-0.468,0.5-0.723c0.225-0.609,0.354-1.196,0.726-1.742c0.393-0.573,0.908-1.048,1.288-1.634   c0.28-0.432,0.518-0.861,0.853-1.255c0.858-1.008,1.172-2.38,0.643-3.636c-0.323-0.766-0.583-1.714-1.179-2.313   c-0.476-0.479-1.093-0.77-1.562-1.263c0.343,0.398,0.547,1.02,0.835,1.467c0.165,0.255,0.248,0.525,0.465,0.757   c0.329,0.351,0.948,0.585,1.189,0.977c-0.356,0.356-1.33-0.108-1.789-0.051c-0.394,0.049-2.03,0.707-2.183,0.137   c0.343-0.019,0.705,0.134,1.053,0.155c0.926,0.059,1.857-0.132,2.61-0.69c0.437-0.323,0.96-1.543,0.167-1.787   c-0.299,0.602-2.269,4.398-2.74,4.009c-0.416-0.343,0.38-2.037,0.507-2.415c0.198-0.588,0.693-1.468,0.584-2.101   c-0.392,0.024-0.618,0.445-0.797,0.756c-0.474,0.82-0.779,1.764-1.189,2.62c-0.421,0.88-0.781,0.909-0.866-0.016   c-0.072-0.78,0.521-1.48,0.498-2.258c-0.012-0.411-0.525-1.838,0-2.036c0.108-0.041,0.345,0.139,0.462,0.132   c0.177-0.011,0.338-0.146,0.517-0.201c0.491-0.149,0.969-0.118,1.474-0.095c0.578,0.026,0.993,0.069,1.542,0.202   c0.2,0.049,0.43,0.02,0.612,0.082c0.129,0.044,0.155,0.138,0.32,0.144c0.071,1.188,0.006,2.373,0.006,3.569   c0,0.542,0.21,1.206-0.412,1.325c-0.248,0.048-0.586,0.077-0.853,0.075c-0.195-0.002-0.326-0.131-0.482-0.161   c-0.24-0.045-0.342,0.048-0.57,0.069c-0.363,0.031-0.767-0.059-1.142-0.077c-0.488-0.023-1.615-0.259-2.015,0.038   c-0.114-0.404-0.056-0.71,0.004-1.135c0.098-0.699,0.044-1.368,0.275-2.058c0.041,0.658,0.224,1.497,0.049,2.13   c-0.032-0.528,0.162-1.133,0.045-1.666c-0.04-0.177-0.163-0.299-0.205-0.469c-0.077-0.313,0.035-0.661,0.037-0.974   c0.002-0.316-0.245-0.934-0.055-1.177c0.002,0.189-0.161,0.247-0.193,0.413c0.166-0.024,0.813-0.147,0.95,0.041   c-1.693,0.327-3.369-0.112-5.087,0.004c-5.796,0.393-11.662,0.015-17.409,0.883c-3.225,0.486-5.464,0.299-8.625-0.009   c-8.243-0.8-16.245,1.953-23.982-0.511c-3.041-0.969-5.436-2.845-8.386-3.723c-2.45-0.729-4.973-0.615-7.452-1.108   c-6.506-1.296-13.674,0.76-19.917,2.681C590.544,467.224,5.508,466.082,0,464.76" stroke-dasharray="4744" stroke-dashoffset="4744" visibility="hidden"><set attributeName="visibility" attributeType="CSS" to="visible" begin="0s" dur="5s" fill="freeze"></set><animate attributeName="stroke-dashoffset" from="4744" to="0" begin="0s" dur="5s" fill="freeze" keySplines="0.4 0 0.7 1" calcMode="spline"></animate></path></svg>